<svg xmlns="http://www.w3.org/2000/svg" viewBox="0 0 128 128">
  <!-- Premium Gamer Headphones with thick headband, padded ear cups and mic using EvenOdd transparency -->
  <path d="M 28 42 C 28 38, 40 38, 40 42 V 54 C 40 58, 28 58, 28 54 Z M 31 48 A 3 3 0 1 0 37 48 A 3 3 0 1 0 31 48 Z M 88 42 C 88 38, 100 38, 100 42 V 54 C 100 58, 88 58, 88 54 Z M 91 48 A 3 3 0 1 0 97 48 A 3 3 0 1 0 91 48 Z M 32 38 C 32 14, 96 14, 96 38 H 92 C 92 18, 36 18, 36 38 Z M 34 54 C 34 62, 44 64, 46 64 H 47 V 62 C 45 62, 36 60, 36 54 Z M 45 61 H 49 V 65 H 45 Z" fill-rule="evenodd" fill="#000"/>
</svg>