<svg xmlns="http://www.w3.org/2000/svg" viewBox="0 0 128 128">
  <!-- Cool Aviator Sunglasses with stylish diagonal shimmer reflections using EvenOdd -->
  <path d="M 37 42 H 59 L 57 56 C 55 60, 42 60, 37 52 Z M 42 45 L 46 56 H 48 L 44 45 Z M 69 42 H 91 L 91 52 C 86 60, 73 60, 71 56 Z M 74 45 L 78 56 H 80 L 76 45 Z M 59 44 H 69 V 45.5 H 59 Z M 58 48 C 62 47, 66 47, 70 48 V 49.5 C 66 48.5, 62 48.5, 58 49.5 Z M 37 44 H 34 V 46.5 H 37 Z M 91 44 H 94 V 46.5 H 91 Z" fill-rule="evenodd" fill="#000"/>
</svg>
