<svg xmlns="http://www.w3.org/2000/svg" viewBox="0 0 128 128">
  <!-- Majestic Supreme Crown with floating peak gems and detailed diamond/circular cutouts using EvenOdd -->
  <path d="M 42 22 C 50 25, 78 25, 86 22 L 86 26 C 78 29, 50 29, 42 26 Z M 42 22 L 44 14 L 51 20 L 55 10 L 61 20 L 64 4 L 67 20 L 73 10 L 77 20 L 84 14 L 86 22 Z M 64 12 L 67 16 L 64 20 L 61 16 Z M 52.5 17 A 1.5 1.5 0 1 0 55.5 17 A 1.5 1.5 0 1 0 52.5 17 Z M 72.5 17 A 1.5 1.5 0 1 0 75.5 17 A 1.5 1.5 0 1 0 72.5 17 Z M 62 2 A 2 2 0 1 0 66 2 A 2 2 0 1 0 62 2 Z M 53.5 8 A 1.5 1.5 0 1 0 56.5 8 A 1.5 1.5 0 1 0 53.5 8 Z M 72.5 8 A 1.5 1.5 0 1 0 75.5 8 A 1.5 1.5 0 1 0 72.5 8 Z" fill-rule="evenodd" fill="#000"/>
</svg>