<?xml version="1.0" encoding="UTF-8" standalone="no"?>
<!-- Generator: Adobe Illustrator 15.0.0, SVG Export Plug-In . SVG Version: 6.00 Build 0)  -->

<svg
   xmlns:dc="http://purl.org/dc/elements/1.1/"
   xmlns:cc="http://creativecommons.org/ns#"
   xmlns:rdf="http://www.w3.org/1999/02/22-rdf-syntax-ns#"
   xmlns:svg="http://www.w3.org/2000/svg"
   xmlns="http://www.w3.org/2000/svg"
   xmlns:sodipodi="http://sodipodi.sourceforge.net/DTD/sodipodi-0.dtd"
   xmlns:inkscape="http://www.inkscape.org/namespaces/inkscape"
   version="1.1"
   id="Layer_1"
   x="0px"
   y="0px"
   width="481.89px"
   height="502.11px"
   viewBox="0 0 481.89 502.11"
   enable-background="new 0 0 481.89 502.11"
   xml:space="preserve"
   inkscape:version="0.47 r22583"
   sodipodi:docname="Cell_Cycle_HR.svg"><metadata
   id="metadata3344"><rdf:RDF><cc:Work
       rdf:about=""><dc:format>image/svg+xml</dc:format><dc:type
         rdf:resource="http://purl.org/dc/dcmitype/StillImage" /></cc:Work></rdf:RDF></metadata><defs
   id="defs3342"><inkscape:perspective
     sodipodi:type="inkscape:persp3d"
     inkscape:vp_x="0 : 251.05499 : 1"
     inkscape:vp_y="0 : 1000 : 0"
     inkscape:vp_z="481.89001 : 251.05499 : 1"
     inkscape:persp3d-origin="240.94501 : 167.37 : 1"
     id="perspective3346" /></defs><sodipodi:namedview
   pagecolor="#ffffff"
   bordercolor="#666666"
   borderopacity="1"
   objecttolerance="10"
   gridtolerance="10"
   guidetolerance="10"
   inkscape:pageopacity="0"
   inkscape:pageshadow="2"
   inkscape:window-width="1366"
   inkscape:window-height="721"
   id="namedview3340"
   showgrid="false"
   inkscape:zoom="0.46702915"
   inkscape:cx="240.94501"
   inkscape:cy="251.05499"
   inkscape:window-x="-4"
   inkscape:window-y="-4"
   inkscape:window-maximized="1"
   inkscape:current-layer="Layer_1" />
<g
   id="g3083">
	<g
   id="g3085">
		<path
   fill="none"
   stroke="#58595B"
   stroke-width="2"
   stroke-miterlimit="10"
   d="M69.429,113.61    c-34.817,37.545-56.104,87.815-56.104,143.058c0,58.249,23.668,110.968,61.909,149.072"
   id="path3087" />
		<g
   id="g3089">
			<path
   fill="#58595B"
   d="M74.867,107.96c-3.538,1.729-8.389,3.435-12.14,3.784l6.02,2.644l2.934,5.882     C71.846,116.507,73.312,111.578,74.867,107.96z"
   id="path3091" />
		</g>
	</g>
</g>
<g
   id="g3093">
	<path
   fill="#FFDE17"
   d="M223.769,65.668c-52.787,0-100.572,21.415-135.143,56.03c7.667,7.65,15.339,15.299,23.014,22.947   c28.687-28.714,68.333-46.477,112.129-46.477c43.863,0,83.562,17.819,112.259,46.611c7.647-7.675,15.294-15.35,22.938-23.024   C324.392,87.107,276.584,65.668,223.769,65.668z"
   id="path3095" />
	<path
   fill="#F8951D"
   d="M382.269,256.668c0,87.538-70.963,158.501-158.5,158.501s-158.5-70.964-158.5-158.501   c0-43.742,17.72-83.344,46.371-112.023c-7.675-7.647-15.346-15.296-23.014-22.947c-34.514,34.557-55.857,82.271-55.857,134.97   c0,105.487,85.514,191.001,191,191.001s191-85.515,191-191.001c0-52.671-21.321-100.361-55.802-134.914   c-7.645,7.674-15.292,15.35-22.938,23.024C364.603,173.448,382.269,212.994,382.269,256.668z"
   id="path3097" />
	<path
   fill="#A67BA7"
   d="M223.769,106.335c-41.535,0-79.135,16.845-106.344,44.075c6.04,6.017,12.081,12.034,18.124,18.051   c22.577-22.579,53.767-36.545,88.22-36.545c34.564,0,65.844,14.059,88.437,36.768c6.02-6.04,12.041-12.079,18.059-18.119   C303.044,123.245,265.382,106.335,223.769,106.335z"
   id="path3099" />
	<path
   fill="#94B6D2"
   d="M348.522,256.668c0,34.403-13.926,65.553-36.448,88.122c6.004,6.048,12.007,12.105,18.009,18.168   c27.198-27.204,44.02-64.782,44.02-106.29c0-41.414-16.748-78.914-43.838-106.104c-6.018,6.04-12.039,12.079-18.059,18.119   C334.649,191.241,348.522,222.334,348.522,256.668z"
   id="path3101" />
	<path
   fill="#7AA77F"
   d="M99.016,256.668c0-34.447,13.961-65.632,36.534-88.208c-6.043-6.017-12.084-12.034-18.124-18.051   c-27.18,27.202-43.99,64.767-43.99,106.259c0,41.521,16.833,79.111,44.047,106.318c6.064-6,12.112-12.007,18.167-18.01   C113.019,322.393,99.016,291.166,99.016,256.668z"
   id="path3103" />
	<path
   fill="#DC4040"
   d="M223.769,381.424c-34.402,0-65.55-13.927-88.119-36.447c-6.055,6.003-12.103,12.01-18.167,18.01   c27.204,27.196,64.781,44.017,106.286,44.017c41.52,0,79.108-16.832,106.314-44.045c-6.001-6.063-12.004-12.12-18.009-18.168   C289.491,367.421,258.266,381.424,223.769,381.424z"
   id="path3105" />
</g>
<g
   id="g3107"
   transform="matrix(1.4210826,0,0,1.4210826,-95.036776,-60.994687)">
	<circle
   cx="223.845"
   cy="159.33501"
   r="15.833"
   id="circle3109"
   d="m 239.678,159.33501 c 0,8.74432 -7.08867,15.833 -15.833,15.833 -8.74432,0 -15.833,-7.08868 -15.833,-15.833 0,-8.74433 7.08868,-15.833 15.833,-15.833 8.74433,0 15.833,7.08867 15.833,15.833 z"
   sodipodi:cx="223.845"
   sodipodi:cy="159.33501"
   sodipodi:rx="15.833"
   sodipodi:ry="15.833"
   style="fill:#a67ba7" />
	<g
   id="g3111">
		<path
   d="m 227.971,160.021 c -0.058,-1.568 -0.116,-3.466 -0.116,-5.364 h -0.039 c -0.426,1.665 -0.968,3.524 -1.472,5.054 l -1.588,5.093 h -2.304 l -1.394,-5.035 c -0.426,-1.549 -0.852,-3.408 -1.181,-5.112 h -0.039 c -0.058,1.762 -0.136,3.776 -0.213,5.402 l -0.252,4.957 h -2.73 l 0.833,-13.051 h 3.931 l 1.278,4.356 c 0.426,1.511 0.813,3.137 1.104,4.667 h 0.077 c 0.349,-1.51 0.794,-3.233 1.239,-4.686 l 1.375,-4.337 h 3.873 l 0.697,13.051 h -2.866 l -0.213,-4.995 z"
   id="path3113" />
	</g>
</g>
<g
   id="g3115"
   transform="matrix(1.4210826,0,0,1.4210826,-95.602244,-155.73192)">
	<circle
   cx="223.845"
   cy="354.004"
   r="15.833"
   id="circle3117"
   d="m 239.678,354.004 c 0,8.74432 -7.08867,15.833 -15.833,15.833 -8.74432,0 -15.833,-7.08868 -15.833,-15.833 0,-8.74433 7.08868,-15.833 15.833,-15.833 8.74433,0 15.833,7.08867 15.833,15.833 z"
   sodipodi:cx="223.845"
   sodipodi:cy="354.004"
   sodipodi:rx="15.833"
   sodipodi:ry="15.833"
   style="fill:#dc4040" />
	<g
   id="g3119">
		<path
   d="m 219.993,356.646 c 0.774,0.406 2.014,0.813 3.272,0.813 1.355,0 2.072,-0.562 2.072,-1.413 0,-0.814 -0.62,-1.279 -2.188,-1.82 -2.169,-0.775 -3.602,-1.976 -3.602,-3.873 0,-2.227 1.878,-3.912 4.938,-3.912 1.491,0 2.556,0.291 3.331,0.658 l -0.659,2.363 c -0.503,-0.252 -1.452,-0.619 -2.71,-0.619 -1.278,0 -1.898,0.6 -1.898,1.258 0,0.832 0.717,1.201 2.42,1.84 2.304,0.852 3.369,2.053 3.369,3.892 0,2.188 -1.665,4.048 -5.247,4.048 -1.491,0 -2.963,-0.407 -3.699,-0.814 l 0.601,-2.421 z"
   id="path3121" />
	</g>
</g>
<g
   id="g3123"
   transform="matrix(1.4210826,0,0,1.4210826,-95.534026,-18.116473)">
	<circle
   cx="223.797"
   cy="39.903"
   r="15.833"
   id="circle3125"
   d="m 239.63,39.903 c 0,8.744324 -7.08868,15.833 -15.833,15.833 -8.74433,0 -15.833,-7.088676 -15.833,-15.833 0,-8.744325 7.08867,-15.833 15.833,-15.833 8.74432,0 15.833,7.088675 15.833,15.833 z"
   sodipodi:cx="223.797"
   sodipodi:cy="39.903"
   sodipodi:rx="15.833"
   sodipodi:ry="15.833"
   style="fill:#ffde17" />
	<g
   id="g3127">
		<path
   d="m 227.922,40.589 c -0.058,-1.568 -0.116,-3.466 -0.116,-5.364 h -0.039 c -0.426,1.665 -0.968,3.524 -1.472,5.054 l -1.588,5.093 h -2.304 l -1.394,-5.035 c -0.426,-1.549 -0.852,-3.408 -1.181,-5.112 h -0.039 c -0.058,1.762 -0.136,3.776 -0.213,5.402 l -0.252,4.957 h -2.73 l 0.833,-13.051 h 3.931 l 1.278,4.356 c 0.426,1.511 0.813,3.137 1.104,4.667 h 0.077 c 0.349,-1.51 0.794,-3.233 1.239,-4.686 l 1.375,-4.337 h 3.873 l 0.697,13.051 h -2.866 l -0.213,-4.995 z"
   id="path3129" />
	</g>
</g>
<g
   id="g3131"
   transform="matrix(1.4120863,0,0,1.4120863,-185.75861,-109.49092)">
	<path
   d="m 462.278,258.528 c -0.91,0.31 -2.633,0.736 -4.357,0.736 -2.382,0 -4.105,-0.601 -5.306,-1.743 -1.181,-1.143 -1.839,-2.847 -1.839,-4.764 0.02,-4.337 3.176,-6.816 7.455,-6.816 1.685,0 2.982,0.329 3.621,0.62 l -0.62,2.382 c -0.716,-0.329 -1.587,-0.562 -3.021,-0.562 -2.459,0 -4.337,1.375 -4.337,4.221 0,2.711 1.704,4.279 4.125,4.279 0.658,0 1.2,-0.078 1.433,-0.174 v -2.75 h -2.014 v -2.304 h 4.86 v 6.875 z"
   id="path3133" />
	<path
   d="m 469.195,261.871 c 0,2.258 -0.915,3.828 -2.778,3.828 -1.896,0 -2.732,-1.705 -2.744,-3.782 0,-2.134 0.892,-3.806 2.789,-3.806 1.955,0 2.733,1.75 2.733,3.76 z m -3.805,0.046 c 0,1.682 0.407,2.484 1.062,2.484 0.666,0 1.027,-0.835 1.027,-2.507 0,-1.626 -0.35,-2.484 -1.039,-2.484 -0.621,0 -1.05,0.79 -1.05,2.507 z"
   id="path3135" />
</g>
<g
   id="g3137"
   transform="matrix(1.4210826,0,0,1.4210826,-95.494236,-197.45787)">
	<circle
   cx="223.769"
   cy="473.436"
   r="15.833"
   id="circle3139"
   d="m 239.602,473.436 c 0,8.74433 -7.08868,15.833 -15.833,15.833 -8.74433,0 -15.833,-7.08867 -15.833,-15.833 0,-8.74432 7.08867,-15.833 15.833,-15.833 8.74432,0 15.833,7.08868 15.833,15.833 z"
   sodipodi:cx="223.769"
   sodipodi:cy="473.436"
   sodipodi:rx="15.833"
   sodipodi:ry="15.833"
   style="fill:#f8951d" />
	<g
   id="g3141">
		<path
   d="m 225.251,466.067 v 13.051 h -2.943 v -13.051 h 2.943 z"
   id="path3143" />
	</g>
</g>
<g
   id="g3145"
   transform="matrix(1.4210826,0,0,1.4210826,-46.572574,-114.75805)">
	<circle
   cx="126.435"
   cy="256.698"
   r="15.833"
   id="circle3147"
   d="m 142.268,256.698 c 0,8.74432 -7.08868,15.833 -15.833,15.833 -8.74433,0 -15.833,-7.08868 -15.833,-15.833 0,-8.74433 7.08867,-15.833 15.833,-15.833 8.74432,0 15.833,7.08867 15.833,15.833 z"
   sodipodi:cx="126.435"
   sodipodi:cy="256.698"
   sodipodi:rx="15.833"
   sodipodi:ry="15.833"
   style="fill:#7aa77f" />
	<g
   id="g3149">
		<path
   d="m 128.881,258.556 c -0.91,0.31 -2.633,0.736 -4.357,0.736 -2.382,0 -4.105,-0.601 -5.306,-1.743 -1.181,-1.143 -1.839,-2.847 -1.839,-4.764 0.02,-4.337 3.176,-6.816 7.455,-6.816 1.685,0 2.982,0.329 3.621,0.62 l -0.62,2.382 c -0.716,-0.329 -1.587,-0.562 -3.021,-0.562 -2.459,0 -4.337,1.375 -4.337,4.221 0,2.711 1.704,4.279 4.125,4.279 0.658,0 1.2,-0.078 1.433,-0.174 v -2.75 h -2.014 v -2.304 h 4.86 v 6.875 z"
   id="path3151" />
		<path
   d="m 130.39,265.603 v -1.039 l 0.938,-0.847 c 1.615,-1.445 2.394,-2.27 2.405,-3.128 0,-0.598 -0.35,-1.072 -1.197,-1.072 -0.632,0 -1.186,0.316 -1.569,0.598 l -0.486,-1.219 c 0.542,-0.418 1.412,-0.757 2.394,-0.757 1.671,0 2.574,0.971 2.574,2.292 0,1.242 -0.88,2.224 -1.953,3.173 l -0.678,0.564 v 0.022 h 2.778 v 1.412 h -5.206 z"
   id="path3153" />
	</g>
	<g
   id="g3155">
	</g>
</g>
<g
   id="g3157"
   transform="translate(0,-4.3980078)">
	<g
   id="g3159">
		<path
   stroke-miterlimit="10"
   d="m 341.967,185.859 c 10.756,-5.449 22.92,-8.519 35.802,-8.519 35.177,0 65.006,22.896 75.398,54.598"
   id="path3161"
   style="fill:none;stroke:#58595b;stroke-width:2;stroke-miterlimit:10" />
		<g
   id="g3163">
			<path
   d="m 455.237,239.508 c -2.33,-3.174 -5.834,-6.938 -8.994,-8.989 l 6.559,0.455 5.331,-3.846 c -1.602,3.408 -2.593,8.454 -2.896,12.38 z"
   id="path3165"
   style="fill:#58595b" />
		</g>
	</g>
</g>
<g
   id="g3167">
	<g
   id="g3169">
		<path
   fill="none"
   stroke="#58595B"
   stroke-width="2"
   stroke-miterlimit="10"
   d="M456.337,267.701    c-5.369,38.591-38.5,68.297-78.568,68.297c-10.328,0-20.196-1.974-29.245-5.564"
   id="path3171" />
		<g
   id="g3173">
			<path
   fill="#58595B"
   d="M341.387,327.183c3.929,0.258,9.065-0.003,12.668-1.102l-4.567,4.729l-0.485,6.555     C347.423,333.945,344.197,329.94,341.387,327.183z"
   id="path3175" />
		</g>
	</g>
</g>
<g
   id="g3177"
   transform="matrix(1.4210826,0,0,1.4210826,-140.32045,-114.75805)">
	<circle
   cx="321.103"
   cy="256.698"
   r="15.833"
   id="circle3179"
   d="m 336.936,256.698 c 0,8.74432 -7.08868,15.833 -15.833,15.833 -8.74433,0 -15.833,-7.08868 -15.833,-15.833 0,-8.74433 7.08867,-15.833 15.833,-15.833 8.74432,0 15.833,7.08867 15.833,15.833 z"
   sodipodi:cx="321.103"
   sodipodi:cy="256.698"
   sodipodi:rx="15.833"
   sodipodi:ry="15.833"
   style="fill:#94b6d2" />
	<g
   id="g3181">
		<path
   d="m 323.549,258.557 c -0.91,0.31 -2.633,0.736 -4.357,0.736 -2.382,0 -4.105,-0.601 -5.306,-1.743 -1.181,-1.143 -1.839,-2.847 -1.839,-4.764 0.02,-4.337 3.176,-6.816 7.455,-6.816 1.685,0 2.982,0.329 3.621,0.62 l -0.62,2.382 c -0.716,-0.329 -1.587,-0.562 -3.021,-0.562 -2.459,0 -4.337,1.375 -4.337,4.221 0,2.711 1.704,4.279 4.125,4.279 0.658,0 1.2,-0.078 1.433,-0.174 v -2.75 h -2.014 v -2.304 h 4.86 v 6.875 z"
   id="path3183" />
		<path
   d="m 327.238,259.789 h -0.023 l -1.4,0.666 -0.282,-1.287 1.953,-0.903 h 1.412 v 7.339 h -1.66 v -5.815 z"
   id="path3185" />
	</g>
</g>
<g
   id="g3187">
	<g
   id="g3189">
		<path
   fill="none"
   stroke="#58595B"
   stroke-width="2"
   stroke-miterlimit="10"
   d="M308.596,74.073    c17.695-5.929,33.343-13.658,46.186-22.75"
   id="path3191" />
		<g
   id="g3193">
			<path
   fill="#58595B"
   d="M361.986,45.837c-2.461,3.819-5.073,9.147-5.981,13.397l-2.213-7.256l-6.342-4.16     C351.784,48.14,357.63,47.128,361.986,45.837z"
   id="path3195" />
		</g>
	</g>
</g>
<g
   id="g3197"
   transform="matrix(1.4245217,0,0,1.4245217,-140.34644,-7.8550618)">
	<circle
   cx="360.69199"
   cy="29.215"
   r="0.333"
   id="circle3199"
   sodipodi:cx="360.69199"
   sodipodi:cy="29.215"
   sodipodi:rx="0.333"
   sodipodi:ry="0.333"
   style="fill-opacity:0.1"
   d="m 361.02499,29.215 c 0,0.183911 -0.14909,0.333 -0.333,0.333 -0.18391,0 -0.333,-0.149089 -0.333,-0.333 0,-0.183911 0.14909,-0.333 0.333,-0.333 0.18391,0 0.333,0.149089 0.333,0.333 z" />
	<circle
   cx="361.02499"
   cy="34.344002"
   r="0.333"
   id="circle3201"
   sodipodi:cx="361.02499"
   sodipodi:cy="34.344002"
   sodipodi:rx="0.333"
   sodipodi:ry="0.333"
   style="fill-opacity:0.1"
   d="m 361.35799,34.344002 c 0,0.183911 -0.14909,0.333 -0.333,0.333 -0.18391,0 -0.333,-0.149089 -0.333,-0.333 0,-0.183911 0.14909,-0.333 0.333,-0.333 0.18391,0 0.333,0.149089 0.333,0.333 z" />
	<g
   id="g3203">
		<path
   d="m 394.641,48.391 c -4.051,0 -7.917,-1.714 -10.834,-3.207 -3.909,-2.001 -7.82,-2.795 -11.96,-3.636 -2.148,-0.436 -4.369,-0.887 -6.591,-1.521 -3.337,-0.953 -7.36,-3.145 -8.641,-6.439 -0.771,-1.983 -0.48,-4.096 0.863,-6.282 0.926,-1.506 2.375,-2.421 3.778,-3.305 0.842,-0.531 1.712,-1.08 2.435,-1.744 1.078,-0.99 1.837,-2.227 2.572,-3.423 0.567,-0.922 1.151,-1.874 1.886,-2.728 0.078,-0.107 0.178,-0.22 0.281,-0.313 0.741,-0.771 1.669,-1.146 2.833,-1.146 0.866,0 1.753,0.201 2.611,0.396 0.739,0.167 1.438,0.326 2.078,0.35 0.186,0.007 0.372,0.01 0.56,0.01 2.552,0 5.328,-0.59 8.012,-1.161 0.662,-0.141 1.311,-0.279 1.938,-0.403 2.043,-0.406 4.229,-0.621 6.321,-0.621 3.484,0 8.397,0.586 12.019,3.381 4.944,3.813 3.433,11.324 1.211,15.443 -0.682,1.264 -0.904,3.425 -1.14,5.712 -0.386,3.75 -0.785,7.628 -3.258,8.896 -2.288,1.171 -4.569,1.741 -6.974,1.741 z"
   id="path3205"
   style="fill:#f0e4c3" />
		<path
   d="m 392.781,13.592 c 4.231,0 8.643,0.875 11.79,3.303 4.527,3.491 3.474,10.586 1.11,14.968 -1.831,3.394 -0.47,12.521 -4.239,14.453 -2.343,1.201 -4.596,1.7 -6.801,1.7 -3.628,0 -7.124,-1.354 -10.663,-3.166 -6.053,-3.099 -12.249,-3.364 -18.62,-5.184 -5.382,-1.537 -11.428,-5.875 -7.562,-12.165 1.431,-2.329 4.206,-3.186 6.147,-4.969 2.026,-1.862 2.886,-4.434 4.684,-6.405 0.768,-0.842 1.675,-1.106 2.634,-1.106 1.551,0 3.235,0.692 4.675,0.745 0.189,0.007 0.381,0.01 0.573,0.01 3.239,0 6.895,-0.95 10.024,-1.572 1.9,-0.376 4.05,-0.612 6.248,-0.612 m -24.006,2.374 c 0,0 -0.041,0.044 -0.148,0.162 -0.184,0.201 -0.249,0.273 -0.249,0.273 l 0.397,-0.435 m 24.006,-3.124 0,0 c -2.115,0 -4.327,0.217 -6.394,0.628 -0.629,0.125 -1.28,0.264 -1.944,0.405 -2.666,0.567 -5.421,1.153 -7.934,1.153 -0.183,0 -0.365,-0.003 -0.545,-0.01 -0.605,-0.022 -1.287,-0.177 -2.009,-0.34 -0.878,-0.199 -1.787,-0.405 -2.694,-0.405 -1.185,0 -2.148,0.358 -2.934,1.093 -0.071,0.058 -0.145,0.138 -0.254,0.257 -0.004,0.005 -0.009,0.01 -0.013,0.014 l 0,0 c -0.075,0.083 -0.146,0.161 -0.208,0.236 -0.751,0.877 -1.34,1.835 -1.91,2.764 -0.754,1.229 -1.467,2.389 -2.506,3.343 -0.697,0.641 -1.516,1.157 -2.381,1.703 -1.438,0.907 -2.926,1.846 -3.897,3.426 -1.408,2.291 -1.708,4.516 -0.893,6.614 1.674,4.307 7.226,6.19 8.888,6.665 2.236,0.639 4.465,1.091 6.62,1.528 4.115,0.835 8.001,1.624 11.864,3.602 2.954,1.512 6.874,3.248 11.005,3.248 2.466,0 4.802,-0.583 7.144,-1.783 2.654,-1.36 3.064,-5.341 3.46,-9.191 0.231,-2.25 0.45,-4.375 1.097,-5.573 2.283,-4.231 3.817,-11.962 -1.312,-15.917 -3.707,-2.86 -8.707,-3.46 -12.25,-3.46 l 0,0 0,0 z"
   id="path3207"
   style="fill:#939598" />
		<path
   d="m 392.781,14.592 c 3.27,0 7.864,0.537 11.179,3.095 4.235,3.266 2.763,10.137 0.841,13.701 -0.812,1.504 -1.048,3.797 -1.297,6.225 -0.332,3.228 -0.708,6.886 -2.518,7.813 -2.088,1.07 -4.164,1.59 -6.345,1.59 -2.971,0 -6.024,-0.914 -10.208,-3.056 -4.077,-2.087 -8.264,-2.937 -12.313,-3.759 -2.122,-0.431 -4.316,-0.876 -6.487,-1.496 -3.02,-0.863 -6.639,-2.791 -7.737,-5.616 -0.607,-1.561 -0.354,-3.264 0.752,-5.064 0.758,-1.234 2.012,-2.024 3.34,-2.862 0.894,-0.564 1.818,-1.146 2.632,-1.895 1.218,-1.12 2.029,-2.439 2.813,-3.716 0.61,-0.993 1.187,-1.932 1.934,-2.752 l 0.002,-0.002 c 0.492,-0.538 1.075,-0.777 1.893,-0.777 0.712,0 1.523,0.184 2.307,0.362 0.769,0.174 1.563,0.354 2.332,0.383 0.202,0.007 0.405,0.011 0.61,0.011 2.696,0 5.672,-0.633 8.298,-1.191 0.656,-0.14 1.299,-0.276 1.921,-0.4 1.956,-0.389 4.048,-0.594 6.051,-0.594 l 0,0 m 0,-1 c -2.199,0 -4.349,0.236 -6.248,0.614 -3.129,0.622 -6.785,1.572 -10.024,1.572 -0.192,0 -0.384,-0.003 -0.573,-0.01 -1.44,-0.053 -3.125,-0.745 -4.675,-0.745 -0.958,0 -1.866,0.264 -2.634,1.106 -1.798,1.971 -2.658,4.543 -4.684,6.405 -1.941,1.783 -4.716,2.641 -6.147,4.969 -3.866,6.29 2.18,10.627 7.562,12.165 6.371,1.819 12.567,2.085 18.62,5.184 3.54,1.812 7.035,3.166 10.663,3.166 2.205,0 4.458,-0.5 6.801,-1.7 3.769,-1.932 2.408,-11.059 4.239,-14.453 2.364,-4.381 3.417,-11.477 -1.11,-14.968 -3.147,-2.43 -7.558,-3.305 -11.79,-3.305 l 0,0 z m -24.006,2.374 -0.397,0.435 c 0,0 0.065,-0.072 0.249,-0.273 0.108,-0.118 0.148,-0.163 0.148,-0.162 l 0,0 z"
   id="path3209"
   style="fill:#ffffff" />
	</g>
	<path
   d="m 357.992,33.052 c -0.595,-1.529 -0.344,-3.202 0.744,-4.973 0.746,-1.213 1.99,-1.998 3.308,-2.829 0.897,-0.566 1.825,-1.151 2.646,-1.905 1.229,-1.129 2.044,-2.456 2.832,-3.738 0.608,-0.991 1.184,-1.927 1.921,-2.736 0.471,-0.517 1.032,-0.747 1.819,-0.747 0.701,0 1.506,0.183 2.285,0.359 0.773,0.175 1.572,0.356 2.35,0.385 0.2,0.007 0.407,0.011 0.615,0.011 2.706,0 5.685,-0.633 8.313,-1.192 0.671,-0.143 1.305,-0.277 1.925,-0.4 1.95,-0.388 4.036,-0.593 6.033,-0.593 3.254,0 7.823,0.533 11.116,3.072 2.23,1.721 2.704,4.364 2.709,6.28 0,0 -11.377,-1.169 -22.849,4.232 -11.473,5.403 -25.767,4.774 -25.767,4.774 z"
   id="path3211"
   style="fill:#ffffff;fill-opacity:0.4" />
	<circle
   cx="363.827"
   cy="30.427"
   r="0.88499999"
   id="circle3213"
   sodipodi:cx="363.827"
   sodipodi:cy="30.427"
   sodipodi:rx="0.88499999"
   sodipodi:ry="0.88499999"
   style="fill-opacity:0.1"
   d="m 364.712,30.427 c 0,0.488772 -0.39623,0.885 -0.885,0.885 -0.48878,0 -0.885,-0.396228 -0.885,-0.885 0,-0.488772 0.39622,-0.885 0.885,-0.885 0.48877,0 0.885,0.396228 0.885,0.885 z" />
	<circle
   cx="363.827"
   cy="30.427"
   r="0.333"
   id="circle3215"
   sodipodi:cx="363.827"
   sodipodi:cy="30.427"
   sodipodi:rx="0.333"
   sodipodi:ry="0.333"
   style="fill-opacity:0.1"
   d="m 364.16,30.427 c 0,0.183911 -0.14909,0.333 -0.333,0.333 -0.18391,0 -0.333,-0.149089 -0.333,-0.333 0,-0.183911 0.14909,-0.333 0.333,-0.333 0.18391,0 0.333,0.149089 0.333,0.333 z" />
	<circle
   cx="372.34"
   cy="37.383999"
   r="0.88499999"
   id="circle3217"
   sodipodi:cx="372.34"
   sodipodi:cy="37.383999"
   sodipodi:rx="0.88499999"
   sodipodi:ry="0.88499999"
   style="fill-opacity:0.1"
   d="m 373.225,37.383999 c 0,0.488772 -0.39623,0.885 -0.885,0.885 -0.48878,0 -0.885,-0.396228 -0.885,-0.885 0,-0.488772 0.39622,-0.885 0.885,-0.885 0.48877,0 0.885,0.396228 0.885,0.885 z" />
	<circle
   cx="372.341"
   cy="37.383999"
   r="0.333"
   id="circle3219"
   sodipodi:cx="372.341"
   sodipodi:cy="37.383999"
   sodipodi:rx="0.333"
   sodipodi:ry="0.333"
   style="fill-opacity:0.1"
   d="m 372.674,37.383999 c 0,0.183911 -0.14909,0.333 -0.333,0.333 -0.18391,0 -0.333,-0.149089 -0.333,-0.333 0,-0.183911 0.14909,-0.333 0.333,-0.333 0.18391,0 0.333,0.149089 0.333,0.333 z" />
	<circle
   cx="392.384"
   cy="37.675999"
   r="0.88499999"
   id="circle3221"
   sodipodi:cx="392.384"
   sodipodi:cy="37.675999"
   sodipodi:rx="0.88499999"
   sodipodi:ry="0.88499999"
   style="fill-opacity:0.1"
   d="m 393.269,37.675999 c 0,0.488772 -0.39623,0.885 -0.885,0.885 -0.48877,0 -0.885,-0.396228 -0.885,-0.885 0,-0.488772 0.39623,-0.885 0.885,-0.885 0.48877,0 0.885,0.396228 0.885,0.885 z" />
	<circle
   cx="392.383"
   cy="37.675999"
   r="0.333"
   id="circle3223"
   sodipodi:cx="392.383"
   sodipodi:cy="37.675999"
   sodipodi:rx="0.333"
   sodipodi:ry="0.333"
   style="fill-opacity:0.1"
   d="m 392.716,37.675999 c 0,0.183911 -0.14909,0.333 -0.333,0.333 -0.18392,0 -0.333,-0.149089 -0.333,-0.333 0,-0.183911 0.14908,-0.333 0.333,-0.333 0.18391,0 0.333,0.149089 0.333,0.333 z" />
	<circle
   cx="399.67999"
   cy="27.804001"
   r="0.88499999"
   id="circle3225"
   sodipodi:cx="399.67999"
   sodipodi:cy="27.804001"
   sodipodi:rx="0.88499999"
   sodipodi:ry="0.88499999"
   style="fill-opacity:0.1"
   d="m 400.56499,27.804001 c 0,0.488772 -0.39623,0.885 -0.885,0.885 -0.48877,0 -0.885,-0.396228 -0.885,-0.885 0,-0.488772 0.39623,-0.885 0.885,-0.885 0.48877,0 0.885,0.396228 0.885,0.885 z" />
	<circle
   cx="399.681"
   cy="27.804001"
   r="0.333"
   id="circle3227"
   sodipodi:cx="399.681"
   sodipodi:cy="27.804001"
   sodipodi:rx="0.333"
   sodipodi:ry="0.333"
   style="fill-opacity:0.1"
   d="m 400.014,27.804001 c 0,0.183911 -0.14909,0.333 -0.333,0.333 -0.18391,0 -0.333,-0.149089 -0.333,-0.333 0,-0.183911 0.14909,-0.333 0.333,-0.333 0.18391,0 0.333,0.149089 0.333,0.333 z" />
	<circle
   cx="394.55399"
   cy="29.215"
   r="0.88499999"
   id="circle3229"
   sodipodi:cx="394.55399"
   sodipodi:cy="29.215"
   sodipodi:rx="0.88499999"
   sodipodi:ry="0.88499999"
   style="fill-opacity:0.1"
   d="m 395.43899,29.215 c 0,0.488772 -0.39623,0.885 -0.885,0.885 -0.48878,0 -0.885,-0.396228 -0.885,-0.885 0,-0.488772 0.39622,-0.885 0.885,-0.885 0.48877,0 0.885,0.396228 0.885,0.885 z" />
	<circle
   cx="394.55399"
   cy="29.215"
   r="0.333"
   id="circle3231"
   sodipodi:cx="394.55399"
   sodipodi:cy="29.215"
   sodipodi:rx="0.333"
   sodipodi:ry="0.333"
   style="fill-opacity:0.1"
   d="m 394.88699,29.215 c 0,0.183911 -0.14909,0.333 -0.333,0.333 -0.18392,0 -0.333,-0.149089 -0.333,-0.333 0,-0.183911 0.14908,-0.333 0.333,-0.333 0.18391,0 0.333,0.149089 0.333,0.333 z" />
	<circle
   cx="368.22299"
   cy="24.375"
   r="0.88499999"
   id="circle3233"
   sodipodi:cx="368.22299"
   sodipodi:cy="24.375"
   sodipodi:rx="0.88499999"
   sodipodi:ry="0.88499999"
   style="fill-opacity:0.1"
   d="m 369.10799,24.375 c 0,0.488772 -0.39623,0.885 -0.885,0.885 -0.48877,0 -0.885,-0.396228 -0.885,-0.885 0,-0.488772 0.39623,-0.885 0.885,-0.885 0.48877,0 0.885,0.396228 0.885,0.885 z" />
	<circle
   cx="368.22299"
   cy="24.375"
   r="0.333"
   id="circle3235"
   sodipodi:cx="368.22299"
   sodipodi:cy="24.375"
   sodipodi:rx="0.333"
   sodipodi:ry="0.333"
   style="fill-opacity:0.1"
   d="m 368.55599,24.375 c 0,0.183911 -0.14909,0.333 -0.333,0.333 -0.18391,0 -0.333,-0.149089 -0.333,-0.333 0,-0.183911 0.14909,-0.333 0.333,-0.333 0.18391,0 0.333,0.149089 0.333,0.333 z" />
	<circle
   cx="379.573"
   cy="31.688999"
   r="0.88499999"
   id="circle3237"
   sodipodi:cx="379.573"
   sodipodi:cy="31.688999"
   sodipodi:rx="0.88499999"
   sodipodi:ry="0.88499999"
   style="fill-opacity:0.1"
   d="m 380.458,31.688999 c 0,0.488772 -0.39623,0.885 -0.885,0.885 -0.48877,0 -0.885,-0.396228 -0.885,-0.885 0,-0.488772 0.39623,-0.885 0.885,-0.885 0.48877,0 0.885,0.396228 0.885,0.885 z" />
	<circle
   cx="379.573"
   cy="31.688999"
   r="0.333"
   id="circle3239"
   sodipodi:cx="379.573"
   sodipodi:cy="31.688999"
   sodipodi:rx="0.333"
   sodipodi:ry="0.333"
   style="fill-opacity:0.1"
   d="m 379.906,31.688999 c 0,0.183911 -0.14909,0.333 -0.333,0.333 -0.18391,0 -0.333,-0.149089 -0.333,-0.333 0,-0.183911 0.14909,-0.333 0.333,-0.333 0.18391,0 0.333,0.149089 0.333,0.333 z" />
	<circle
   cx="401.12701"
   cy="20.657"
   r="0.88499999"
   id="circle3241"
   sodipodi:cx="401.12701"
   sodipodi:cy="20.657"
   sodipodi:rx="0.88499999"
   sodipodi:ry="0.88499999"
   style="fill-opacity:0.1"
   d="m 402.01201,20.657 c 0,0.488772 -0.39622,0.885 -0.885,0.885 -0.48877,0 -0.885,-0.396228 -0.885,-0.885 0,-0.488772 0.39623,-0.885 0.885,-0.885 0.48878,0 0.885,0.396228 0.885,0.885 z" />
	<circle
   cx="401.12601"
   cy="20.657"
   r="0.333"
   id="circle3243"
   sodipodi:cx="401.12601"
   sodipodi:cy="20.657"
   sodipodi:rx="0.333"
   sodipodi:ry="0.333"
   style="fill-opacity:0.1"
   d="m 401.45901,20.657 c 0,0.18391 -0.14909,0.333 -0.333,0.333 -0.18391,0 -0.333,-0.14909 -0.333,-0.333 0,-0.183911 0.14909,-0.333 0.333,-0.333 0.18391,0 0.333,0.149089 0.333,0.333 z" />
	<circle
   cx="389.85001"
   cy="18.205999"
   r="0.88499999"
   id="circle3245"
   sodipodi:cx="389.85001"
   sodipodi:cy="18.205999"
   sodipodi:rx="0.88499999"
   sodipodi:ry="0.88499999"
   style="fill-opacity:0.1"
   d="m 390.73501,18.205999 c 0,0.488772 -0.39623,0.885 -0.885,0.885 -0.48878,0 -0.885,-0.396228 -0.885,-0.885 0,-0.488772 0.39622,-0.885 0.885,-0.885 0.48877,0 0.885,0.396228 0.885,0.885 z" />
	<circle
   cx="389.85001"
   cy="18.205999"
   r="0.333"
   id="circle3247"
   sodipodi:cx="389.85001"
   sodipodi:cy="18.205999"
   sodipodi:rx="0.333"
   sodipodi:ry="0.333"
   style="fill-opacity:0.1"
   d="m 390.18301,18.205999 c 0,0.183911 -0.14909,0.333 -0.333,0.333 -0.18391,0 -0.333,-0.149089 -0.333,-0.333 0,-0.18391 0.14909,-0.333 0.333,-0.333 0.18391,0 0.333,0.14909 0.333,0.333 z" />
	<circle
   cx="386.289"
   cy="27.028999"
   r="0.88499999"
   id="circle3249"
   sodipodi:cx="386.289"
   sodipodi:cy="27.028999"
   sodipodi:rx="0.88499999"
   sodipodi:ry="0.88499999"
   style="fill-opacity:0.1"
   d="m 387.174,27.028999 c 0,0.488772 -0.39623,0.885 -0.885,0.885 -0.48877,0 -0.885,-0.396228 -0.885,-0.885 0,-0.488772 0.39623,-0.885 0.885,-0.885 0.48877,0 0.885,0.396228 0.885,0.885 z" />
	<circle
   cx="386.289"
   cy="27.030001"
   r="0.333"
   id="circle3251"
   sodipodi:cx="386.289"
   sodipodi:cy="27.030001"
   sodipodi:rx="0.333"
   sodipodi:ry="0.333"
   style="fill-opacity:0.1"
   d="m 386.622,27.030001 c 0,0.183911 -0.14909,0.333 -0.333,0.333 -0.18391,0 -0.333,-0.149089 -0.333,-0.333 0,-0.183911 0.14909,-0.333 0.333,-0.333 0.18391,0 0.333,0.149089 0.333,0.333 z" />
	<circle
   cx="386.39999"
   cy="41.991001"
   r="0.88499999"
   id="circle3253"
   sodipodi:cx="386.39999"
   sodipodi:cy="41.991001"
   sodipodi:rx="0.88499999"
   sodipodi:ry="0.88499999"
   style="fill-opacity:0.1"
   d="m 387.28499,41.991001 c 0,0.488772 -0.39622,0.885 -0.885,0.885 -0.48877,0 -0.885,-0.396228 -0.885,-0.885 0,-0.488772 0.39623,-0.885 0.885,-0.885 0.48878,0 0.885,0.396228 0.885,0.885 z" />
	<circle
   cx="386.39999"
   cy="41.990002"
   r="0.333"
   id="circle3255"
   sodipodi:cx="386.39999"
   sodipodi:cy="41.990002"
   sodipodi:rx="0.333"
   sodipodi:ry="0.333"
   style="fill-opacity:0.1"
   d="m 386.73299,41.990002 c 0,0.183911 -0.14909,0.333 -0.333,0.333 -0.18391,0 -0.333,-0.149089 -0.333,-0.333 0,-0.183911 0.14909,-0.333 0.333,-0.333 0.18391,0 0.333,0.149089 0.333,0.333 z" />
	<circle
   cx="388.17001"
   cy="33.459"
   r="0.88499999"
   id="circle3257"
   sodipodi:cx="388.17001"
   sodipodi:cy="33.459"
   sodipodi:rx="0.88499999"
   sodipodi:ry="0.88499999"
   style="fill-opacity:0.1"
   d="m 389.05501,33.459 c 0,0.488772 -0.39622,0.885 -0.885,0.885 -0.48877,0 -0.885,-0.396228 -0.885,-0.885 0,-0.488772 0.39623,-0.885 0.885,-0.885 0.48878,0 0.885,0.396228 0.885,0.885 z" />
	<circle
   cx="388.16901"
   cy="33.459"
   r="0.333"
   id="circle3259"
   sodipodi:cx="388.16901"
   sodipodi:cy="33.459"
   sodipodi:rx="0.333"
   sodipodi:ry="0.333"
   style="fill-opacity:0.1"
   d="m 388.50201,33.459 c 0,0.18391 -0.14909,0.333 -0.333,0.333 -0.18391,0 -0.333,-0.14909 -0.333,-0.333 0,-0.183911 0.14909,-0.333 0.333,-0.333 0.18391,0 0.333,0.149089 0.333,0.333 z" />
	<circle
   cx="398.79599"
   cy="42.875"
   r="0.88499999"
   id="circle3261"
   sodipodi:cx="398.79599"
   sodipodi:cy="42.875"
   sodipodi:rx="0.88499999"
   sodipodi:ry="0.88499999"
   style="fill-opacity:0.1"
   d="m 399.68099,42.875 c 0,0.488772 -0.39623,0.885 -0.885,0.885 -0.48877,0 -0.885,-0.396228 -0.885,-0.885 0,-0.488772 0.39623,-0.885 0.885,-0.885 0.48877,0 0.885,0.396228 0.885,0.885 z" />
	<circle
   cx="398.79501"
   cy="42.875"
   r="0.333"
   id="circle3263"
   sodipodi:cx="398.79501"
   sodipodi:cy="42.875"
   sodipodi:rx="0.333"
   sodipodi:ry="0.333"
   style="fill-opacity:0.1"
   d="m 399.12801,42.875 c 0,0.183911 -0.14909,0.333 -0.333,0.333 -0.18391,0 -0.333,-0.149089 -0.333,-0.333 0,-0.183911 0.14909,-0.333 0.333,-0.333 0.18391,0 0.333,0.149089 0.333,0.333 z" />
	<circle
   cx="379.46301"
   cy="25.804001"
   r="0.88499999"
   id="circle3265"
   sodipodi:cx="379.46301"
   sodipodi:cy="25.804001"
   sodipodi:rx="0.88499999"
   sodipodi:ry="0.88499999"
   style="fill-opacity:0.1"
   d="m 380.34801,25.804001 c 0,0.488772 -0.39623,0.885 -0.885,0.885 -0.48877,0 -0.885,-0.396228 -0.885,-0.885 0,-0.488772 0.39623,-0.885 0.885,-0.885 0.48877,0 0.885,0.396228 0.885,0.885 z" />
	<circle
   cx="379.46301"
   cy="25.804001"
   r="0.333"
   id="circle3267"
   sodipodi:cx="379.46301"
   sodipodi:cy="25.804001"
   sodipodi:rx="0.333"
   sodipodi:ry="0.333"
   style="fill-opacity:0.1"
   d="m 379.79601,25.804001 c 0,0.183911 -0.14909,0.333 -0.333,0.333 -0.18391,0 -0.333,-0.149089 -0.333,-0.333 0,-0.183911 0.14909,-0.333 0.333,-0.333 0.18391,0 0.333,0.149089 0.333,0.333 z" />
	<circle
   cx="377.371"
   cy="20.657"
   r="0.88499999"
   id="circle3269"
   sodipodi:cx="377.371"
   sodipodi:cy="20.657"
   sodipodi:rx="0.88499999"
   sodipodi:ry="0.88499999"
   style="fill-opacity:0.1"
   d="m 378.256,20.657 c 0,0.488772 -0.39623,0.885 -0.885,0.885 -0.48877,0 -0.885,-0.396228 -0.885,-0.885 0,-0.488772 0.39623,-0.885 0.885,-0.885 0.48877,0 0.885,0.396228 0.885,0.885 z" />
	<circle
   cx="377.371"
   cy="20.657"
   r="0.333"
   id="circle3271"
   sodipodi:cx="377.371"
   sodipodi:cy="20.657"
   sodipodi:rx="0.333"
   sodipodi:ry="0.333"
   style="fill-opacity:0.1"
   d="m 377.704,20.657 c 0,0.18391 -0.14909,0.333 -0.333,0.333 -0.18391,0 -0.333,-0.14909 -0.333,-0.333 0,-0.183911 0.14909,-0.333 0.333,-0.333 0.18391,0 0.333,0.149089 0.333,0.333 z" />
	<circle
   cx="374.371"
   cy="23.885"
   r="0.333"
   id="circle3273"
   sodipodi:cx="374.371"
   sodipodi:cy="23.885"
   sodipodi:rx="0.333"
   sodipodi:ry="0.333"
   style="fill-opacity:0.1"
   d="m 374.704,23.885 c 0,0.183911 -0.14909,0.333 -0.333,0.333 -0.18391,0 -0.333,-0.149089 -0.333,-0.333 0,-0.183911 0.14909,-0.333 0.333,-0.333 0.18391,0 0.333,0.149089 0.333,0.333 z" />
	<circle
   cx="372.60001"
   cy="19.771999"
   r="0.333"
   id="circle3275"
   sodipodi:cx="372.60001"
   sodipodi:cy="19.771999"
   sodipodi:rx="0.333"
   sodipodi:ry="0.333"
   style="fill-opacity:0.1"
   d="m 372.93301,19.771999 c 0,0.183911 -0.14909,0.333 -0.333,0.333 -0.18391,0 -0.333,-0.149089 -0.333,-0.333 0,-0.18391 0.14909,-0.333 0.333,-0.333 0.18391,0 0.333,0.14909 0.333,0.333 z" />
	<circle
   cx="383.64401"
   cy="19.438"
   r="0.333"
   id="circle3277"
   sodipodi:cx="383.64401"
   sodipodi:cy="19.438"
   sodipodi:rx="0.333"
   sodipodi:ry="0.333"
   style="fill-opacity:0.1"
   d="m 383.97701,19.438 c 0,0.183911 -0.14909,0.333 -0.333,0.333 -0.18391,0 -0.333,-0.149089 -0.333,-0.333 0,-0.183911 0.14909,-0.333 0.333,-0.333 0.18391,0 0.333,0.149089 0.333,0.333 z" />
	<circle
   cx="389.05499"
   cy="23.552"
   r="0.333"
   id="circle3279"
   sodipodi:cx="389.05499"
   sodipodi:cy="23.552"
   sodipodi:rx="0.333"
   sodipodi:ry="0.333"
   style="fill-opacity:0.1"
   d="m 389.38799,23.552 c 0,0.183911 -0.14909,0.333 -0.333,0.333 -0.18391,0 -0.333,-0.149089 -0.333,-0.333 0,-0.183911 0.14909,-0.333 0.333,-0.333 0.18391,0 0.333,0.149089 0.333,0.333 z" />
	<circle
   cx="395.22101"
   cy="19.771999"
   r="0.333"
   id="circle3281"
   sodipodi:cx="395.22101"
   sodipodi:cy="19.771999"
   sodipodi:rx="0.333"
   sodipodi:ry="0.333"
   style="fill-opacity:0.1"
   d="m 395.55401,19.771999 c 0,0.183911 -0.14909,0.333 -0.333,0.333 -0.18391,0 -0.333,-0.149089 -0.333,-0.333 0,-0.18391 0.14909,-0.333 0.333,-0.333 0.18391,0 0.333,0.14909 0.333,0.333 z" />
	<circle
   cx="395.10501"
   cy="23.218"
   r="0.333"
   id="circle3283"
   sodipodi:cx="395.10501"
   sodipodi:cy="23.218"
   sodipodi:rx="0.333"
   sodipodi:ry="0.333"
   style="fill-opacity:0.1"
   d="m 395.43801,23.218 c 0,0.183911 -0.14909,0.333 -0.333,0.333 -0.18391,0 -0.333,-0.149089 -0.333,-0.333 0,-0.18391 0.14909,-0.333 0.333,-0.333 0.18391,0 0.333,0.14909 0.333,0.333 z" />
	<circle
   cx="389.85001"
   cy="29.766001"
   r="0.333"
   id="circle3285"
   sodipodi:cx="389.85001"
   sodipodi:cy="29.766001"
   sodipodi:rx="0.333"
   sodipodi:ry="0.333"
   style="fill-opacity:0.1"
   d="m 390.18301,29.766001 c 0,0.183911 -0.14909,0.333 -0.333,0.333 -0.18391,0 -0.333,-0.149089 -0.333,-0.333 0,-0.183911 0.14909,-0.333 0.333,-0.333 0.18391,0 0.333,0.149089 0.333,0.333 z" />
	<circle
   cx="399.681"
   cy="32.751999"
   r="0.333"
   id="circle3287"
   sodipodi:cx="399.681"
   sodipodi:cy="32.751999"
   sodipodi:rx="0.333"
   sodipodi:ry="0.333"
   style="fill-opacity:0.1"
   d="m 400.014,32.751999 c 0,0.183911 -0.14909,0.333 -0.333,0.333 -0.18391,0 -0.333,-0.149089 -0.333,-0.333 0,-0.183911 0.14909,-0.333 0.333,-0.333 0.18391,0 0.333,0.149089 0.333,0.333 z" />
	<circle
   cx="395.888"
   cy="34.344002"
   r="0.333"
   id="circle3289"
   sodipodi:cx="395.888"
   sodipodi:cy="34.344002"
   sodipodi:rx="0.333"
   sodipodi:ry="0.333"
   style="fill-opacity:0.1"
   d="m 396.221,34.344002 c 0,0.183911 -0.14909,0.333 -0.333,0.333 -0.18391,0 -0.333,-0.149089 -0.333,-0.333 0,-0.183911 0.14909,-0.333 0.333,-0.333 0.18391,0 0.333,0.149089 0.333,0.333 z" />
	<circle
   cx="398.129"
   cy="38.894001"
   r="0.333"
   id="circle3291"
   sodipodi:cx="398.129"
   sodipodi:cy="38.894001"
   sodipodi:rx="0.333"
   sodipodi:ry="0.333"
   style="fill-opacity:0.1"
   d="m 398.462,38.894001 c 0,0.183911 -0.14909,0.333 -0.333,0.333 -0.18391,0 -0.333,-0.149089 -0.333,-0.333 0,-0.183911 0.14909,-0.333 0.333,-0.333 0.18391,0 0.333,0.149089 0.333,0.333 z" />
	<circle
   cx="393.60199"
   cy="45"
   r="0.333"
   id="circle3293"
   sodipodi:cx="393.60199"
   sodipodi:cy="45"
   sodipodi:rx="0.333"
   sodipodi:ry="0.333"
   style="fill-opacity:0.1"
   d="m 393.93499,45 c 0,0.183911 -0.14909,0.333 -0.333,0.333 -0.18391,0 -0.333,-0.149089 -0.333,-0.333 0,-0.183911 0.14909,-0.333 0.333,-0.333 0.18391,0 0.333,0.149089 0.333,0.333 z" />
	<circle
   cx="392.04999"
   cy="40.5"
   r="0.333"
   id="circle3295"
   sodipodi:cx="392.04999"
   sodipodi:cy="40.5"
   sodipodi:rx="0.333"
   sodipodi:ry="0.333"
   style="fill-opacity:0.1"
   d="m 392.38299,40.5 c 0,0.183911 -0.14909,0.333 -0.333,0.333 -0.18391,0 -0.333,-0.149089 -0.333,-0.333 0,-0.183911 0.14909,-0.333 0.333,-0.333 0.18391,0 0.333,0.149089 0.333,0.333 z" />
	<circle
   cx="383.659"
   cy="39.228001"
   r="0.333"
   id="circle3297"
   sodipodi:cx="383.659"
   sodipodi:cy="39.228001"
   sodipodi:rx="0.333"
   sodipodi:ry="0.333"
   style="fill-opacity:0.1"
   d="m 383.992,39.228001 c 0,0.18391 -0.14909,0.333 -0.333,0.333 -0.18391,0 -0.333,-0.14909 -0.333,-0.333 0,-0.183911 0.14909,-0.333 0.333,-0.333 0.18391,0 0.333,0.149089 0.333,0.333 z" />
	<circle
   cx="383.099"
   cy="33.792"
   r="0.333"
   id="circle3299"
   sodipodi:cx="383.099"
   sodipodi:cy="33.792"
   sodipodi:rx="0.333"
   sodipodi:ry="0.333"
   style="fill-opacity:0.1"
   d="m 383.432,33.792 c 0,0.183911 -0.14909,0.333 -0.333,0.333 -0.18391,0 -0.333,-0.149089 -0.333,-0.333 0,-0.183911 0.14909,-0.333 0.333,-0.333 0.18391,0 0.333,0.149089 0.333,0.333 z" />
	<circle
   cx="376.72601"
   cy="36.499001"
   r="0.333"
   id="circle3301"
   sodipodi:cx="376.72601"
   sodipodi:cy="36.499001"
   sodipodi:rx="0.333"
   sodipodi:ry="0.333"
   style="fill-opacity:0.1"
   d="m 377.05901,36.499001 c 0,0.18391 -0.14909,0.333 -0.333,0.333 -0.18391,0 -0.333,-0.14909 -0.333,-0.333 0,-0.183911 0.14909,-0.333 0.333,-0.333 0.18391,0 0.333,0.149089 0.333,0.333 z" />
	<circle
   cx="377.98599"
   cy="40.342999"
   r="0.333"
   id="circle3303"
   sodipodi:cx="377.98599"
   sodipodi:cy="40.342999"
   sodipodi:rx="0.333"
   sodipodi:ry="0.333"
   style="fill-opacity:0.1"
   d="m 378.31899,40.342999 c 0,0.18391 -0.14909,0.333 -0.333,0.333 -0.18391,0 -0.333,-0.14909 -0.333,-0.333 0,-0.183911 0.14909,-0.333 0.333,-0.333 0.18391,0 0.333,0.149089 0.333,0.333 z" />
	<circle
   cx="370.883"
   cy="29.766001"
   r="0.333"
   id="circle3305"
   sodipodi:cx="370.883"
   sodipodi:cy="29.766001"
   sodipodi:rx="0.333"
   sodipodi:ry="0.333"
   style="fill-opacity:0.1"
   d="m 371.216,29.766001 c 0,0.183911 -0.14909,0.333 -0.333,0.333 -0.18392,0 -0.333,-0.149089 -0.333,-0.333 0,-0.183911 0.14908,-0.333 0.333,-0.333 0.18391,0 0.333,0.149089 0.333,0.333 z" />
	<circle
   cx="374.70401"
   cy="28.33"
   r="0.333"
   id="circle3307"
   sodipodi:cx="374.70401"
   sodipodi:cy="28.33"
   sodipodi:rx="0.333"
   sodipodi:ry="0.333"
   style="fill-opacity:0.1"
   d="m 375.03701,28.33 c 0,0.183911 -0.14909,0.333 -0.333,0.333 -0.18391,0 -0.333,-0.149089 -0.333,-0.333 0,-0.183911 0.14909,-0.333 0.333,-0.333 0.18391,0 0.333,0.149089 0.333,0.333 z" />
	<circle
   cx="369.108"
   cy="20.99"
   r="0.333"
   id="circle3309"
   sodipodi:cx="369.108"
   sodipodi:cy="20.99"
   sodipodi:rx="0.333"
   sodipodi:ry="0.333"
   style="fill-opacity:0.1"
   d="m 369.441,20.99 c 0,0.183911 -0.14909,0.333 -0.333,0.333 -0.18391,0 -0.333,-0.149089 -0.333,-0.333 0,-0.183911 0.14909,-0.333 0.333,-0.333 0.18391,0 0.333,0.149089 0.333,0.333 z" />
	<circle
   cx="365.45901"
   cy="24.919001"
   r="0.333"
   id="circle3311"
   sodipodi:cx="365.45901"
   sodipodi:cy="24.919001"
   sodipodi:rx="0.333"
   sodipodi:ry="0.333"
   style="fill-opacity:0.1"
   d="m 365.79201,24.919001 c 0,0.18391 -0.14908,0.333 -0.333,0.333 -0.18391,0 -0.333,-0.14909 -0.333,-0.333 0,-0.183911 0.14909,-0.333 0.333,-0.333 0.18392,0 0.333,0.149089 0.333,0.333 z" />
	<circle
   cx="367.33801"
   cy="36.166"
   r="0.333"
   id="circle3313"
   sodipodi:cx="367.33801"
   sodipodi:cy="36.166"
   sodipodi:rx="0.333"
   sodipodi:ry="0.333"
   style="fill-opacity:0.1"
   d="m 367.67101,36.166 c 0,0.183911 -0.14909,0.333 -0.333,0.333 -0.18391,0 -0.333,-0.149089 -0.333,-0.333 0,-0.18391 0.14909,-0.333 0.333,-0.333 0.18391,0 0.333,0.14909 0.333,0.333 z" />
	<circle
   cx="368.22299"
   cy="33.074001"
   r="0.333"
   id="circle3315"
   sodipodi:cx="368.22299"
   sodipodi:cy="33.074001"
   sodipodi:rx="0.333"
   sodipodi:ry="0.333"
   style="fill-opacity:0.1"
   d="m 368.55599,33.074001 c 0,0.183911 -0.14909,0.333 -0.333,0.333 -0.18391,0 -0.333,-0.149089 -0.333,-0.333 0,-0.183911 0.14909,-0.333 0.333,-0.333 0.18391,0 0.333,0.149089 0.333,0.333 z" />
	<circle
   cx="373.48499"
   cy="32.084999"
   r="0.88499999"
   id="circle3317"
   sodipodi:cx="373.48499"
   sodipodi:cy="32.084999"
   sodipodi:rx="0.88499999"
   sodipodi:ry="0.88499999"
   style="fill-opacity:0.1"
   d="m 374.36999,32.084999 c 0,0.488772 -0.39623,0.885 -0.885,0.885 -0.48878,0 -0.885,-0.396228 -0.885,-0.885 0,-0.488772 0.39622,-0.885 0.885,-0.885 0.48877,0 0.885,0.396228 0.885,0.885 z" />
	<circle
   cx="373.48499"
   cy="32.084999"
   r="0.333"
   id="circle3319"
   sodipodi:cx="373.48499"
   sodipodi:cy="32.084999"
   sodipodi:rx="0.333"
   sodipodi:ry="0.333"
   style="fill-opacity:0.1"
   d="m 373.81799,32.084999 c 0,0.183911 -0.14909,0.333 -0.333,0.333 -0.18392,0 -0.333,-0.149089 -0.333,-0.333 0,-0.183911 0.14908,-0.333 0.333,-0.333 0.18391,0 0.333,0.149089 0.333,0.333 z" />
	<radialGradient
   id="SVGID_1_"
   cx="394.772"
   cy="24.3745"
   r="3.7381001"
   gradientUnits="userSpaceOnUse">
		<stop
   offset="0"
   style="stop-color:#CFA4CC"
   id="stop3322" />
		<stop
   offset="0.215"
   style="stop-color:#CDA1CA"
   id="stop3324" />
		<stop
   offset="0.3878"
   style="stop-color:#C598C5"
   id="stop3326" />
		<stop
   offset="0.5458"
   style="stop-color:#B98ABE"
   id="stop3328" />
		<stop
   offset="0.695"
   style="stop-color:#A977B4"
   id="stop3330" />
		<stop
   offset="0.8382"
   style="stop-color:#9761A8"
   id="stop3332" />
		<stop
   offset="0.9749"
   style="stop-color:#83459B"
   id="stop3334" />
		<stop
   offset="1"
   style="stop-color:#7F3F98"
   id="stop3336" />
	</radialGradient>
	<path
   stroke-miterlimit="10"
   d="m 397.217,21.1 c 1.142,0.69 1.332,1.491 1.162,2.553 -0.17,1.061 -0.32,2.083 -0.641,3.083 -0.44,1.402 -2.523,1.563 -3.844,1.402 -1.562,-0.2 -2.963,-2.163 -2.763,-3.724 0.119,-0.721 0.44,-1.361 0.961,-1.842 0.68,-0.641 1.602,-1.222 2.402,-1.682 0.801,-0.461 1.583,-0.48 2.723,0.21 z"
   id="path3338"
   style="opacity:0.5;fill:url(#SVGID_1_);stroke:#58595b;stroke-width:0.25;stroke-miterlimit:10" />
</g>
</svg>