<svg xmlns="http://www.w3.org/2000/svg" viewBox="0 0 1200 800">
  <defs>
    <linearGradient id="skyDesert" x1="0%" y1="0%" x2="0%" y2="100%">
      <stop offset="0%" style="stop-color:#87CEEB;stop-opacity:1" />
      <stop offset="100%" style="stop-color:#F0E68C;stop-opacity:1" />
    </linearGradient>
    <linearGradient id="skyForest" x1="0%" y1="0%" x2="0%" y2="100%">
      <stop offset="0%" style="stop-color:#4A90E2;stop-opacity:1" />
      <stop offset="100%" style="stop-color:#87CEEB;stop-opacity:1" />
    </linearGradient>
    <linearGradient id="skyAltiplano" x1="0%" y1="0%" x2="0%" y2="100%">
      <stop offset="0%" style="stop-color:#1E3A8A;stop-opacity:1" />
      <stop offset="100%" style="stop-color:#3B82F6;stop-opacity:1" />
    </linearGradient>
    <radialGradient id="sun" cx="50%" cy="50%" r="50%">
      <stop offset="0%" style="stop-color:#FFD700;stop-opacity:1" />
      <stop offset="100%" style="stop-color:#FFA500;stop-opacity:1" />
    </radialGradient>
  </defs>
  
  <!-- Título -->
  <rect width="1200" height="60" fill="#2C5F2D"/>
  <text x="600" y="40" font-family="Arial, sans-serif" font-size="32" font-weight="bold" fill="white" text-anchor="middle">
    ECOSISTEMAS CHILENOS: Diversidad Biológica
  </text>
  
  <!-- ECOSISTEMA 1: DESIERTO DE ATACAMA -->
  <g id="atacama">
    <!-- Fondo cielo -->
    <rect x="20" y="80" width="360" height="320" fill="url(#skyDesert)"/>
    <!-- Suelo desértico -->
    <path d="M 20 300 Q 100 290, 200 295 T 380 300 L 380 400 L 20 400 Z" fill="#D2B48C"/>
    <path d="M 20 320 Q 120 315, 220 318 T 380 320 L 380 400 L 20 400 Z" fill="#C19A6B"/>
    
    <!-- Sol intenso -->
    <circle cx="320" cy="120" r="30" fill="url(#sun)"/>
    <line x1="320" y1="80" x2="320" y2="95" stroke="#FFD700" stroke-width="3"/>
    <line x1="320" y1="145" x2="320" y2="160" stroke="#FFD700" stroke-width="3"/>
    <line x1="280" y1="120" x2="295" y2="120" stroke="#FFD700" stroke-width="3"/>
    <line x1="345" y1="120" x2="360" y2="120" stroke="#FFD700" stroke-width="3"/>
    
    <!-- Cactus (Echinopsis atacamensis) -->
    <ellipse cx="100" cy="280" rx="12" ry="50" fill="#2D5016"/>
    <ellipse cx="90" cy="270" rx="8" ry="30" fill="#2D5016"/>
    <ellipse cx="110" cy="265" rx="8" ry="25" fill="#2D5016"/>
    <!-- Espinas cactus -->
    <line x1="100" y1="240" x2="95" y2="235" stroke="#8B7355" stroke-width="1"/>
    <line x1="100" y1="250" x2="105" y2="245" stroke="#8B7355" stroke-width="1"/>
    <line x1="100" y1="260" x2="95" y2="255" stroke="#8B7355" stroke-width="1"/>
    
    <!-- Llareta (Azorella compacta) -->
    <ellipse cx="280" cy="310" rx="40" ry="15" fill="#556B2F"/>
    <ellipse cx="300" cy="312" rx="35" ry="12" fill="#6B8E23"/>
    <ellipse cx="260" cy="315" rx="30" ry="10" fill="#556B2F"/>
    
    <!-- Vicuña -->
    <ellipse cx="200" cy="295" rx="25" ry="18" fill="#C8A882"/>
    <ellipse cx="185" cy="285" rx="12" ry="12" fill="#C8A882"/>
    <rect x="188" y="280" width="3" height="8" fill="#8B7355"/>
    <rect x="192" y="280" width="3" height="8" fill="#8B7355"/>
    <path d="M 185 285 L 182 275 L 188 275 Z" fill="#8B7355"/>
    <line x1="225" y1="295" x2="235" y2="300" stroke="#8B7355" stroke-width="2"/>
    <rect x="195" y="305" width="4" height="15" fill="#8B7355"/>
    <rect x="205" y="305" width="4" height="15" fill="#8B7355"/>
    <rect x="210" y="305" width="4" height="15" fill="#8B7355"/>
    <rect x="220" y="305" width="4" height="15" fill="#8B7355"/>
    
    <!-- Zorro culpeo -->
    <ellipse cx="140" cy="315" rx="18" ry="10" fill="#8B4513"/>
    <ellipse cx="130" cy="310" rx="8" ry="8" fill="#8B4513"/>
    <path d="M 130 308 L 125 302 L 135 302 Z" fill="#8B4513"/>
    <circle cx="128" cy="310" r="1.5" fill="black"/>
    <circle cx="132" cy="310" r="1.5" fill="black"/>
    <line x1="158" y1="315" x2="168" y2="312" stroke="#D2691E" stroke-width="3"/>
    <rect x="125" y="320" width="3" height="8" fill="#8B4513"/>
    <rect x="133" y="320" width="3" height="8" fill="#8B4513"/>
    <rect x="145" y="320" width="3" height="8" fill="#8B4513"/>
    <rect x="153" y="320" width="3" height="8" fill="#8B4513"/>
    
    <!-- Título -->
    <rect x="20" y="410" width="360" height="50" fill="#E8DCC4"/>
    <text x="200" y="435" font-family="Arial, sans-serif" font-size="18" font-weight="bold" fill="#8B4513" text-anchor="middle">
      DESIERTO DE ATACAMA
    </text>
    <text x="200" y="452" font-family="Arial, sans-serif" font-size="11" fill="#555" text-anchor="middle">
      Clima: Árido | Precipitación: &lt;1mm/año
    </text>
    
    <!-- Leyenda especies -->
    <rect x="25" y="470" width="350" height="110" fill="white" stroke="#8B4513" stroke-width="2"/>
    <text x="200" y="488" font-family="Arial, sans-serif" font-size="13" font-weight="bold" fill="#2C5F2D" text-anchor="middle">
      Flora y Fauna Endémica
    </text>
    <text x="35" y="508" font-family="Arial, sans-serif" font-size="11" fill="#333">
      🌵 Flora: Cactus (Echinopsis), Llareta (Azorella)
    </text>
    <text x="35" y="525" font-family="Arial, sans-serif" font-size="11" fill="#333">
      🦙 Fauna: Vicuña, Zorro culpeo, Lagartija
    </text>
    <text x="35" y="542" font-family="Arial, sans-serif" font-size="11" fill="#333">
      💧 Adaptaciones: Raíces profundas, metabolismo
    </text>
    <text x="35" y="559" font-family="Arial, sans-serif" font-size="11" fill="#333">
      CAM, pelaje claro (refleja calor), actividad nocturna
    </text>
    <text x="35" y="575" font-family="Arial, sans-serif" font-size="10" fill="#666" font-style="italic">
      Lugar más seco del mundo | Biodiversidad adaptada a extremos
    </text>
  </g>
  
  <!-- ECOSISTEMA 2: BOSQUE VALDIVIANO -->
  <g id="valdiviano">
    <!-- Fondo cielo -->
    <rect x="420" y="80" width="360" height="320" fill="url(#skyForest)"/>
    <!-- Lluvia -->
    <line x1="450" y1="100" x2="445" y2="120" stroke="#4A90E2" stroke-width="1" opacity="0.5"/>
    <line x1="480" y1="95" x2="475" y2="115" stroke="#4A90E2" stroke-width="1" opacity="0.5"/>
    <line x1="520" y1="105" x2="515" y2="125" stroke="#4A90E2" stroke-width="1" opacity="0.5"/>
    <line x1="560" y1="98" x2="555" y2="118" stroke="#4A90E2" stroke-width="1" opacity="0.5"/>
    <line x1="600" y1="102" x2="595" y2="122" stroke="#4A90E2" stroke-width="1" opacity="0.5"/>
    <line x1="640" y1="108" x2="635" y2="128" stroke="#4A90E2" stroke-width="1" opacity="0.5"/>
    <line x1="680" y1="100" x2="675" y2="120" stroke="#4A90E2" stroke-width="1" opacity="0.5"/>
    <line x1="720" y1="95" x2="715" y2="115" stroke="#4A90E2" stroke-width="1" opacity="0.5"/>
    
    <!-- Suelo bosque -->
    <rect x="420" y="350" width="360" height="50" fill="#3D2817"/>
    <ellipse cx="500" cy="355" rx="40" ry="8" fill="#2F4F2F" opacity="0.7"/>
    <ellipse cx="620" cy="360" rx="50" ry="10" fill="#2F4F2F" opacity="0.7"/>
    
    <!-- Araucaria (Araucaria araucana) -->
    <rect x="490" y="200" width="20" height="150" fill="#5D4E37"/>
    <!-- Copa araucaria (forma triangular característica) -->
    <path d="M 500 150 L 530 200 L 470 200 Z" fill="#1B4D3E"/>
    <path d="M 500 170 L 525 210 L 475 210 Z" fill="#2F4F2F"/>
    <path d="M 500 190 L 520 220 L 480 220 Z" fill="#1B4D3E"/>
    <!-- Ramas horizontales características -->
    <line x1="490" y1="220" x2="460" y2="225" stroke="#2F4F2F" stroke-width="4"/>
    <line x1="510" y1="220" x2="540" y2="225" stroke="#2F4F2F" stroke-width="4"/>
    <line x1="490" y1="250" x2="465" y2="255" stroke="#2F4F2F" stroke-width="4"/>
    <line x1="510" y1="250" x2="535" y2="255" stroke="#2F4F2F" stroke-width="4"/>
    
    <!-- Coigüe (Nothofagus dombeyi) -->
    <rect x="630" y="220" width="18" height="130" fill="#5D4E37"/>
    <ellipse cx="639" cy="180" rx="50" ry="60" fill="#228B22"/>
    <ellipse cx="625" cy="170" rx="35" ry="45" fill="#2F4F2F"/>
    <ellipse cx="653" cy="175" rx="30" ry="40" fill="#228B22"/>
    
    <!-- Helecho arbóreo (Dicksonia) -->
    <rect x="560" y="280" width="10" height="70" fill="#654321"/>
    <path d="M 565 280 Q 540 270, 535 260" stroke="#228B22" stroke-width="3" fill="none"/>
    <path d="M 565 280 Q 590 270, 595 260" stroke="#228B22" stroke-width="3" fill="none"/>
    <path d="M 565 290 Q 545 285, 540 275" stroke="#2F4F2F" stroke-width="3" fill="none"/>
    <path d="M 565 290 Q 585 285, 590 275" stroke="#2F4F2F" stroke-width="3" fill="none"/>
    
    <!-- Pudú (Pudu puda) -->
    <ellipse cx="720" cy="335" rx="22" ry="15" fill="#8B6914"/>
    <ellipse cx="708" cy="325" rx="10" ry="10" fill="#8B6914"/>
    <line x1="708" y1="320" x2="705" y2="312" stroke="#654321" stroke-width="2"/>
    <line x1="708" y1="320" x2="711" y2="312" stroke="#654321" stroke-width="2"/>
    <circle cx="706" cy="325" r="1.5" fill="black"/>
    <circle cx="710" cy="325" r="1.5" fill="black"/>
    <rect x="705" y="345" width="3" height="10" fill="#654321"/>
    <rect x="711" y="345" width="3" height="10" fill="#654321"/>
    <rect x="725" y="345" width="3" height="10" fill="#654321"/>
    <rect x="731" y="345" width="3" height="10" fill="#654321"/>
    
    <!-- Ranita de Darwin -->
    <ellipse cx="670" cy="348" rx="8" ry="6" fill="#228B22"/>
    <circle cx="668" cy="346" r="2" fill="black"/>
    <circle cx="672" cy="346" r="2" fill="black"/>
    <rect x="665" y="352" width="2" height="4" fill="#228B22"/>
    <rect x="673" y="352" width="2" height="4" fill="#228B22"/>
    
    <!-- Título -->
    <rect x="420" y="410" width="360" height="50" fill="#C8E6C9"/>
    <text x="600" y="435" font-family="Arial, sans-serif" font-size="18" font-weight="bold" fill="#1B5E20" text-anchor="middle">
      BOSQUE VALDIVIANO
    </text>
    <text x="600" y="452" font-family="Arial, sans-serif" font-size="11" fill="#555" text-anchor="middle">
      Clima: Templado lluvioso | Precipitación: 2500mm/año
    </text>
    
    <!-- Leyenda especies -->
    <rect x="425" y="470" width="350" height="110" fill="white" stroke="#1B5E20" stroke-width="2"/>
    <text x="600" y="488" font-family="Arial, sans-serif" font-size="13" font-weight="bold" fill="#1B5E20" text-anchor="middle">
      Flora y Fauna Endémica
    </text>
    <text x="435" y="508" font-family="Arial, sans-serif" font-size="11" fill="#333">
      🌲 Flora: Araucaria, Coigüe, Alerce, Helecho arbóreo
    </text>
    <text x="435" y="525" font-family="Arial, sans-serif" font-size="11" fill="#333">
      🦌 Fauna: Pudú (ciervo más pequeño), Ranita Darwin
    </text>
    <text x="435" y="542" font-family="Arial, sans-serif" font-size="11" fill="#333">
      🌧️ Adaptaciones: Hojas perennes, reproducción
    </text>
    <text x="435" y="559" font-family="Arial, sans-serif" font-size="11" fill="#333">
      en agua, pelaje denso, camuflaje verde
    </text>
    <text x="435" y="575" font-family="Arial, sans-serif" font-size="10" fill="#666" font-style="italic">
      Bosque templado lluvioso | Alta biodiversidad y endemismo
    </text>
  </g>
  
  <!-- ECOSISTEMA 3: ALTIPLANO -->
  <g id="altiplano">
    <!-- Fondo cielo -->
    <rect x="820" y="80" width="360" height="320" fill="url(#skyAltiplano)"/>
    <!-- Sol de altura -->
    <circle cx="1100" cy="110" r="25" fill="url(#sun)"/>
    
    <!-- Montañas nevadas -->
    <path d="M 820 200 L 900 120 L 980 200 Z" fill="#E0E0E0"/>
    <path d="M 900 120 L 920 140 L 880 140 Z" fill="white"/>
    <path d="M 1000 180 L 1060 130 L 1120 180 Z" fill="#D3D3D3"/>
    <path d="M 1060 130 L 1075 145 L 1045 145 Z" fill="white"/>
    
    <!-- Lagunas altiplánicas -->
    <ellipse cx="950" cy="300" rx="80" ry="25" fill="#4A90E2" opacity="0.7"/>
    <ellipse cx="950" cy="295" rx="70" ry="20" fill="#5FA3D0" opacity="0.5"/>
    
    <!-- Suelo rocoso -->
    <rect x="820" y="320" width="360" height="80" fill="#A0826D"/>
    <ellipse cx="880" cy="335" rx="15" ry="8" fill="#8B7355"/>
    <ellipse cx="1050" cy="340" rx="20" ry="10" fill="#8B7355"/>
    <ellipse cx="1130" cy="345" rx="18" ry="9" fill="#8B7355"/>
    
    <!-- Yareta (Azorella compacta) - cojín verde -->
    <ellipse cx="900" cy="345" rx="35" ry="12" fill="#4A7C59"/>
    <ellipse cx="920" cy="347" rx="30" ry="10" fill="#5A8C69"/>
    <ellipse cx="880" cy="348" rx="25" ry="9" fill="#4A7C59"/>
    
    <!-- Queñoa (Polylepis tarapacana) -->
    <rect x="1050" y="310" width="12" height="35" fill="#8B7355"/>
    <ellipse cx="1056" cy="295" rx="20" ry="25" fill="#6B8E23"/>
    <ellipse cx="1050" cy="290" rx="15" ry="20" fill="#556B2F"/>
    <ellipse cx="1062" cy="293" rx="12" ry="18" fill="#6B8E23"/>
    
    <!-- Flamenco chileno (Phoenicopterus chilensis) -->
    <ellipse cx="930" cy="295" rx="15" ry="10" fill="#FF69B4"/>
    <ellipse cx="920" cy="290" rx="7" ry="7" fill="#FF69B4"/>
    <path d="M 920 290 L 918 285" stroke="#FF4500" stroke-width="2"/>
    <circle cx="919" cy="290" r="1.5" fill="black"/>
    <path d="M 920 297 Q 920 310, 925 315" stroke="#FF4500" stroke-width="2" fill="none"/>
    <line x1="925" y1="315" x2="923" y2="318" stroke="#FF4500" stroke-width="1.5"/>
    <line x1="925" y1="315" x2="927" y2="318" stroke="#FF4500" stroke-width="1.5"/>
    <path d="M 945 295 Q 950 288, 955 295" stroke="#FFB6C1" stroke-width="3" fill="none"/>
    
    <!-- Vicuña altiplánica -->
    <ellipse cx="1120" cy="335" rx="20" ry="15" fill="#D4A574"/>
    <ellipse cx="1108" cy="327" rx="10" ry="10" fill="#D4A574"/>
    <rect x="1110" y="323" width="2.5" height="6" fill="#A0826D"/>
    <rect x="1113" y="323" width="2.5" height="6" fill="#A0826D"/>
    <path d="M 1108 327 L 1105 318 L 1111 318 Z" fill="#A0826D"/>
    <rect x="1115" y="345" width="3" height="12" fill="#A0826D"/>
    <rect x="1123" y="345" width="3" height="12" fill="#A0826D"/>
    <rect x="1128" y="345" width="3" height="12" fill="#A0826D"/>
    <rect x="1136" y="345" width="3" height="12" fill="#A0826D"/>
    
    <!-- Vizcacha -->
    <ellipse cx="865" cy="350" rx="12" ry="8" fill="#A0826D"/>
    <ellipse cx="858" cy="345" rx="6" ry="6" fill="#A0826D"/>
    <path d="M 858 342 L 855 337 L 861 337 Z" fill="#A0826D"/>
    <circle cx="857" cy="345" r="1" fill="black"/>
    <circle cx="859" cy="345" r="1" fill="black"/>
    <line x1="877" y1="350" x2="885" y2="348" stroke="#8B7355" stroke-width="2"/>
    
    <!-- Título -->
    <rect x="820" y="410" width="360" height="50" fill="#B3D9FF"/>
    <text x="1000" y="435" font-family="Arial, sans-serif" font-size="18" font-weight="bold" fill="#1E3A8A" text-anchor="middle">
      ALTIPLANO
    </text>
    <text x="1000" y="452" font-family="Arial, sans-serif" font-size="11" fill="#555" text-anchor="middle">
      Clima: Frío de altura | Altitud: 3000-5000 msnm
    </text>
    
    <!-- Leyenda especies -->
    <rect x="825" y="470" width="350" height="110" fill="white" stroke="#1E3A8A" stroke-width="2"/>
    <text x="1000" y="488" font-family="Arial, sans-serif" font-size="13" font-weight="bold" fill="#1E3A8A" text-anchor="middle">
      Flora y Fauna Endémica
    </text>
    <text x="835" y="508" font-family="Arial, sans-serif" font-size="11" fill="#333">
      🌿 Flora: Yareta (cojín), Queñoa (árbol más alto del mundo)
    </text>
    <text x="835" y="525" font-family="Arial, sans-serif" font-size="11" fill="#333">
      🦩 Fauna: Flamenco chileno, Vicuña, Vizcacha, Cóndor
    </text>
    <text x="835" y="542" font-family="Arial, sans-serif" font-size="11" fill="#333">
      ❄️ Adaptaciones: Forma compacta (retiene calor),
    </text>
    <text x="835" y="559" font-family="Arial, sans-serif" font-size="11" fill="#333">
      pelaje/plumaje denso, mayor capacidad pulmonar
    </text>
    <text x="835" y="575" font-family="Arial, sans-serif" font-size="10" fill="#666" font-style="italic">
      Ecosistema de altura | Radiación UV intensa, baja presión O₂
    </text>
  </g>
  
  <!-- Nota pie de página -->
  <rect x="0" y="590" width="1200" height="210" fill="#F5F5DC"/>
  <text x="600" y="615" font-family="Arial, sans-serif" font-size="16" font-weight="bold" fill="#2C5F2D" text-anchor="middle">
    ADAPTACIONES EVOLUTIVAS A ECOSISTEMAS EXTREMOS CHILENOS
  </text>
  
  <!-- Tabla comparativa -->
  <rect x="50" y="630" width="1100" height="30" fill="#4A7C59"/>
  <text x="200" y="650" font-family="Arial, sans-serif" font-size="12" font-weight="bold" fill="white" text-anchor="middle">
    ECOSISTEMA
  </text>
  <text x="450" y="650" font-family="Arial, sans-serif" font-size="12" font-weight="bold" fill="white" text-anchor="middle">
    ADAPTACIONES FLORA
  </text>
  <text x="775" y="650" font-family="Arial, sans-serif" font-size="12" font-weight="bold" fill="white" text-anchor="middle">
    ADAPTACIONES FAUNA
  </text>
  <text x="1050" y="650" font-family="Arial, sans-serif" font-size="12" font-weight="bold" fill="white" text-anchor="middle">
    PRESIÓN SELECTIVA
  </text>
  
  <!-- Fila Atacama -->
  <rect x="50" y="660" width="1100" height="35" fill="white" stroke="#4A7C59" stroke-width="1"/>
  <text x="200" y="680" font-family="Arial, sans-serif" font-size="10" fill="#333" text-anchor="middle" font-weight="bold">
    Desierto Atacama
  </text>
  <text x="450" y="675" font-family="Arial, sans-serif" font-size="9" fill="#333" text-anchor="middle">
    Raíces profundas (30m+), CAM fotosíntesis,
  </text>
  <text x="450" y="687" font-family="Arial, sans-serif" font-size="9" fill="#333" text-anchor="middle">
    cutícula cerosa, espinas (↓evaporación)
  </text>
  <text x="775" y="675" font-family="Arial, sans-serif" font-size="9" fill="#333" text-anchor="middle">
    Actividad nocturna, pelaje claro (refleja
  </text>
  <text x="775" y="687" font-family="Arial, sans-serif" font-size="9" fill="#333" text-anchor="middle">
    calor), orina concentrada, madrigueras
  </text>
  <text x="1050" y="680" font-family="Arial, sans-serif" font-size="9" fill="#333" text-anchor="middle">
    Sequía extrema,
  </text>
  <text x="1050" y="690" font-family="Arial, sans-serif" font-size="9" fill="#333" text-anchor="middle">
    radiación UV alta
  </text>
  
  <!-- Fila Valdiviano -->
  <rect x="50" y="695" width="1100" height="35" fill="#E8F5E9" stroke="#4A7C59" stroke-width="1"/>
  <text x="200" y="715" font-family="Arial, sans-serif" font-size="10" fill="#333" text-anchor="middle" font-weight="bold">
    Bosque Valdiviano
  </text>
  <text x="450" y="710" font-family="Arial, sans-serif" font-size="9" fill="#333" text-anchor="middle">
    Hojas perennes, musgos/líquenes (epífitas),
  </text>
  <text x="450" y="722" font-family="Arial, sans-serif" font-size="9" fill="#333" text-anchor="middle">
    reproducción asexual, semillas aladas
  </text>
  <text x="775" y="710" font-family="Arial, sans-serif" font-size="9" fill="#333" text-anchor="middle">
    Pelaje/plumaje denso e impermeable,
  </text>
  <text x="775" y="722" font-family="Arial, sans-serif" font-size="9" fill="#333" text-anchor="middle">
    reproducción en agua, camuflaje verde
  </text>
  <text x="1050" y="715" font-family="Arial, sans-serif" font-size="9" fill="#333" text-anchor="middle">
    Lluvia constante,
  </text>
  <text x="1050" y="725" font-family="Arial, sans-serif" font-size="9" fill="#333" text-anchor="middle">
    baja luminosidad
  </text>
  
  <!-- Fila Altiplano -->
  <rect x="50" y="730" width="1100" height="35" fill="white" stroke="#4A7C59" stroke-width="1"/>
  <text x="200" y="750" font-family="Arial, sans-serif" font-size="10" fill="#333" text-anchor="middle" font-weight="bold">
    Altiplano
  </text>
  <text x="450" y="745" font-family="Arial, sans-serif" font-size="9" fill="#333" text-anchor="middle">
    Forma cojín compacta (retiene calor),
  </text>
  <text x="450" y="757" font-family="Arial, sans-serif" font-size="9" fill="#333" text-anchor="middle">
    hojas pequeñas (↓pérdida agua), raíces largas
  </text>
  <text x="775" y="745" font-family="Arial, sans-serif" font-size="9" fill="#333" text-anchor="middle">
    Mayor capacidad pulmonar (↑O₂), más
  </text>
  <text x="775" y="757" font-family="Arial, sans-serif" font-size="9" fill="#333" text-anchor="middle">
    hemoglobina, pelaje/plumaje denso
  </text>
  <text x="1050" y="750" font-family="Arial, sans-serif" font-size="9" fill="#333" text-anchor="middle">
    Hipoxia (↓O₂),
  </text>
  <text x="1050" y="760" font-family="Arial, sans-serif" font-size="9" fill="#333" text-anchor="middle">
    temperaturas extremas
  </text>
  
  <!-- Nota final -->
  <text x="600" y="785" font-family="Arial, sans-serif" font-size="10" fill="#666" text-anchor="middle" font-style="italic">
    Fuente: Ministerio del Medio Ambiente (MMA), CONAF, Museo Nacional de Historia Natural
  </text>
  <text x="600" y="798" font-family="Arial, sans-serif" font-size="9" fill="#999" text-anchor="middle">
    Chile: País tricontinental con 17 tipos de climas | Megadiverso por gradiente latitudinal (18°S-56°S) y altitudinal (0-6893 msnm)
  </text>
</svg>
