<svg xmlns="http://www.w3.org/2000/svg" viewBox="0 0 128 128">
  <!-- Left Ear -->
  <circle cx="36" cy="48" r="5.5" fill="#000"/>
  <!-- Right Ear -->
  <circle cx="92" cy="48" r="5.5" fill="#000"/>
  <!-- Neck -->
  <rect x="58" y="62" width="12" height="18" rx="4" fill="#000"/>
  <!-- Chibi Head with cute cheeks -->
  <path d="M64 22c-15.5 0-26 10-26 24 0 12 8 18 20 20 3 0.5 9 1 12 1s9-0.5 12-1c12-2 20-8 20-20 0-14-10.5-24-26-24z" fill="#000"/>
  <!-- Shoulders / Torso -->
  <path d="M22 124c2-22 18-38 42-38s40 16 42 38H22z" fill="#000"/>
</svg>