<?xml version="1.0" encoding="UTF-8"?>
<svg viewBox="0 0 180 240" xmlns="http://www.w3.org/2000/svg" width="540" height="720">
  <defs>
    <linearGradient id="sbg" x1="0" y1="0" x2="0" y2="1"><stop offset="0%" stop-color="#4a4035"/><stop offset="100%" stop-color="#1e1a15"/></linearGradient>
    <linearGradient id="sk" x1="0" y1="0" x2=".5" y2="1"><stop offset="0%" stop-color="#c4a67a"/><stop offset="100%" stop-color="#9a7b55"/></linearGradient>
    <radialGradient id="sv" cx="50%" cy="35%"><stop offset="30%" stop-color="transparent"/><stop offset="100%" stop-color="#0e0c08" stop-opacity=".55"/></radialGradient>
  </defs>
  <rect width="180" height="240" fill="url(#sbg)"/>
  <!-- Jungle hints -->
  <ellipse cx="25" cy="12" rx="35" ry="18" fill="#36312a" opacity=".5"/>
  <ellipse cx="155" cy="8" rx="40" ry="16" fill="#3a352d" opacity=".45"/>
  <ellipse cx="90" cy="5" rx="25" ry="12" fill="#33302a" opacity=".35"/>
  <!-- Torso -->
  <path d="M48,240 L52,188 Q60,168 75,158 L82,150 L82,140 L98,140 L98,150 L105,158 Q120,168 128,188 L132,240Z" fill="url(#sk)"/>
  <path d="M52,188 Q34,198 14,218 L14,240 L48,240Z" fill="#8e6e48"/>
  <path d="M128,188 Q146,198 166,218 L166,240 L132,240Z" fill="#8e6e48"/>
  <!-- Muscle tone -->
  <path d="M74,162 Q90,170 106,162" stroke="#866a44" stroke-width=".8" fill="none" opacity=".35"/>
  <path d="M78,176 Q90,180 102,176" stroke="#866a44" stroke-width=".6" fill="none" opacity=".25"/>
  <!-- Neck -->
  <rect x="82" y="116" width="16" height="26" rx="3" fill="#b09060"/>
  <!-- Head -->
  <ellipse cx="90" cy="84" rx="30" ry="36" fill="#b09060"/>
  <!-- Hair -->
  <path d="M61,76 Q64,44 90,40 Q116,44 119,76" fill="#252018"/>
  <path d="M61,76 Q90,72 119,76" fill="#b09060"/>
  <!-- Ears -->
  <ellipse cx="60" cy="87" rx="5" ry="9" fill="#a08055"/>
  <ellipse cx="120" cy="87" rx="5" ry="9" fill="#a08055"/>
  <!-- Eyes -->
  <ellipse cx="79" cy="84" rx="5" ry="3.5" fill="#e8dcc8"/>
  <circle cx="80" cy="84" r="2.5" fill="#1a1510"/>
  <circle cx="80.8" cy="83.5" r=".8" fill="#3a3530"/>
  <ellipse cx="101" cy="84" rx="5" ry="3.5" fill="#e8dcc8"/>
  <circle cx="100" cy="84" r="2.5" fill="#1a1510"/>
  <circle cx="100.8" cy="83.5" r=".8" fill="#3a3530"/>
  <!-- Eyebrows -->
  <path d="M72,77 Q79,73.5 85,77" stroke="#252018" stroke-width="1.8" fill="none"/>
  <path d="M95,77 Q101,73.5 108,77" stroke="#252018" stroke-width="1.8" fill="none"/>
  <!-- Nose -->
  <path d="M89,88 Q87,96 86,100 Q90,102 94,100 Q93,96 91,88" fill="#9a7c52" opacity=".35"/>
  <!-- Mouth -->
  <path d="M83,108 Q90,111 97,108" stroke="#7a5f3f" stroke-width="1.3" fill="none"/>
  <!-- Dog tag chain -->
  <path d="M86,128 Q84,140 81,152 L78,170" stroke="#b5b5ad" stroke-width="1.4" fill="none"/>
  <path d="M94,128 Q93,142 88,155 L82,170" stroke="#b5b5ad" stroke-width="1.4" fill="none"/>
  <!-- Dog tags -->
  <rect x="72" y="168" width="16" height="22" rx="3" fill="#c0bfb5" stroke="#98978e" stroke-width=".7"/>
  <circle cx="80" cy="170.5" r="1.3" fill="#98978e"/>
  <line x1="75" y1="175" x2="85" y2="175" stroke="#98978e" stroke-width=".9"/>
  <line x1="75" y1="178" x2="85" y2="178" stroke="#98978e" stroke-width=".9"/>
  <line x1="75" y1="181" x2="82" y2="181" stroke="#98978e" stroke-width=".9"/>
  <rect x="75" y="189" width="16" height="22" rx="3" fill="#b5b4aa" stroke="#98978e" stroke-width=".7" transform="rotate(-6,83,200)"/>
  <line x1="78" y1="196" x2="88" y2="196" stroke="#98978e" stroke-width=".9" transform="rotate(-6,83,200)"/>
  <line x1="78" y1="199" x2="88" y2="199" stroke="#98978e" stroke-width=".9" transform="rotate(-6,83,200)"/>
  <!-- Vignette -->
  <rect width="180" height="240" fill="url(#sv)"/>
</svg>
