<?xml version="1.0" encoding="UTF-8"?>
<svg viewBox="0 0 200 270" xmlns="http://www.w3.org/2000/svg" width="600" height="810">
  <defs>
    <linearGradient id="qbg" x1="0" y1="0" x2="0" y2="1"><stop offset="0%" stop-color="#faf3e6"/><stop offset="100%" stop-color="#e8dbc4"/></linearGradient>
  </defs>
  <rect width="200" height="270" fill="url(#qbg)" rx="6"/>
  <!-- Table -->
  <rect x="0" y="195" width="200" height="75" fill="#8B6B20" rx="0"/>
  <rect x="0" y="195" width="200" height="5" fill="#9E7C30" rx="0"/>
  <!-- Shirt/body -->
  <path d="M62,270 L67,205 Q72,180 85,172 L92,167 L108,167 L115,172 Q128,180 133,205 L138,270Z" fill="#4a7a42"/>
  <path d="M67,205 Q48,212 30,230 L30,270 L62,270Z" fill="#3e6838"/>
  <path d="M133,205 Q152,212 170,230 L170,270 L138,270Z" fill="#3e6838"/>
  <!-- Collar -->
  <path d="M92,167 L100,178 L108,167" fill="#f0f0e8"/>
  <!-- Neck -->
  <rect x="92" y="140" width="16" height="30" rx="3" fill="#f0c8a0"/>
  <!-- Head -->
  <ellipse cx="100" cy="108" rx="32" ry="38" fill="#f0c8a0"/>
  <!-- Hair sparse gray -->
  <path d="M69,98 Q73,65 100,60 Q127,65 131,98" fill="#bbb"/>
  <path d="M69,98 Q100,94 131,98" fill="#f0c8a0"/>
  <!-- Ears -->
  <ellipse cx="68" cy="112" rx="5" ry="9" fill="#e0b488"/>
  <ellipse cx="132" cy="112" rx="5" ry="9" fill="#e0b488"/>
  <!-- Glasses -->
  <circle cx="87" cy="108" r="14" fill="rgba(255,255,255,.15)" stroke="#333" stroke-width="2.8"/>
  <circle cx="113" cy="108" r="14" fill="rgba(255,255,255,.15)" stroke="#333" stroke-width="2.8"/>
  <line x1="101" y1="107" x2="99" y2="107" stroke="#333" stroke-width="3"/>
  <line x1="73" y1="106" x2="68" y2="104" stroke="#333" stroke-width="2"/>
  <line x1="127" y1="106" x2="132" y2="104" stroke="#333" stroke-width="2"/>
  <!-- Eyes -->
  <circle cx="87" cy="109" r="2.5" fill="#1e140a"/>
  <circle cx="88" cy="108.5" r=".8" fill="#4a4540"/>
  <circle cx="113" cy="109" r="2.5" fill="#1e140a"/>
  <circle cx="114" cy="108.5" r=".8" fill="#4a4540"/>
  <!-- Nose -->
  <path d="M98,114 Q96,122 95,125 Q100,127 105,125 Q104,122 102,114" fill="#deb080" opacity=".4"/>
  <!-- Warm smile -->
  <path d="M89,132 Q100,139 111,132" stroke="#8a6848" stroke-width="1.5" fill="none"/>
  <!-- Smile lines -->
  <path d="M79,126 Q77,130 80,134" stroke="#d8a880" stroke-width=".7" fill="none" opacity=".5"/>
  <path d="M121,126 Q123,130 120,134" stroke="#d8a880" stroke-width=".7" fill="none" opacity=".5"/>
  <!-- Arms resting on table -->
  <path d="M67,205 Q52,208 44,204 Q40,200 44,198 L62,194 Q68,196 67,205Z" fill="#f0c8a0"/>
  <path d="M133,205 Q148,208 156,204 Q160,200 156,198 L138,194 Q132,196 133,205Z" fill="#f0c8a0"/>
  <!-- Mafalda figurine -->
  <g transform="translate(32,188) scale(.55)">
    <rect x="4" y="20" width="18" height="22" rx="3" fill="#e63946"/>
    <circle cx="13" cy="12" r="11" fill="#f0c8a0"/>
    <path d="M2,10 Q-1,-4 13,-5 Q27,-4 24,10 Q20,3 13,3 Q6,3 2,10Z" fill="#1a1a1a"/>
    <path d="M19,-1 L25,-4 L23,1 L27,4 L19,1Z" fill="#e63946"/>
    <circle cx="9" cy="12" r="1.8" fill="#1a1a1a"/>
    <circle cx="17" cy="12" r="1.8" fill="#1a1a1a"/>
    <path d="M9,17 Q13,19 17,17" stroke="#7a4a2a" stroke-width="1" fill="none"/>
  </g>
  <!-- Manolito figurine -->
  <g transform="translate(145,192) scale(.45)">
    <rect x="4" y="20" width="18" height="20" rx="3" fill="#3b82f6"/>
    <circle cx="13" cy="12" r="10" fill="#f0c8a0"/>
    <path d="M4,8 Q3,-1 13,-2 Q23,-1 22,8" fill="#5a3a1a"/>
    <circle cx="9" cy="12" r="1.5" fill="#1a1a1a"/>
    <circle cx="17" cy="12" r="1.5" fill="#1a1a1a"/>
    <path d="M9,17 Q13,18.5 17,17" stroke="#7a4a2a" stroke-width="1" fill="none"/>
  </g>
  <!-- Book on table -->
  <rect x="82" y="202" width="36" height="24" rx="2" fill="#c0392b" transform="rotate(-5,100,214)"/>
  <rect x="83" y="203" width="16" height="22" rx="1" fill="#e74c3c" transform="rotate(-5,100,214)"/>
</svg>
