<svg xmlns="http://www.w3.org/2000/svg" viewBox="0 0 900 600">
  <!-- Fondo -->
  <rect width="900" height="600" fill="#eff6ff"/>
  
  <!-- Título -->
  <text x="450" y="30" font-size="24" font-weight="bold" text-anchor="middle" fill="#1e40af">Gráficos de Cinemática - MRU y MRUV</text>
  
  <!-- GRÁFICO 1: Posición vs Tiempo (MRU) -->
  <g id="grafico-x-t">
    <text x="150" y="70" font-size="16" font-weight="bold" text-anchor="middle" fill="#0891b2">Gráfico x-t (MRU)</text>
    
    <!-- Ejes -->
    <line x1="30" y1="200" x2="270" y2="200" stroke="#1f2937" stroke-width="2"/>
    <line x1="30" y1="200" x2="30" y2="80" stroke="#1f2937" stroke-width="2"/>
    
    <!-- Flecha X -->
    <polygon points="270,200 265,195 265,205" fill="#1f2937"/>
    <text x="280" y="205" font-size="12" fill="#1f2937">t (s)</text>
    
    <!-- Flecha Y -->
    <polygon points="30,80 25,85 35,85" fill="#1f2937"/>
    <text x="20" y="75" font-size="12" fill="#1f2937">x (m)</text>
    
    <!-- Línea recta (velocidad constante) -->
    <line x1="30" y1="200" x2="250" y2="100" stroke="#0891b2" stroke-width="3"/>
    
    <!-- Anotaciones -->
    <text x="150" y="230" font-size="11" text-anchor="middle" fill="#374151">Pendiente = velocidad (v)</text>
    <text x="150" y="245" font-size="10" text-anchor="middle" fill="#6b7280">v constante → línea recta</text>
  </g>
  
  <!-- GRÁFICO 2: Velocidad vs Tiempo (MRUV) -->
  <g id="grafico-v-t">
    <text x="450" y="70" font-size="16" font-weight="bold" text-anchor="middle" fill="#7c3aed">Gráfico v-t (MRUV)</text>
    
    <!-- Ejes -->
    <line x1="330" y1="200" x2="570" y2="200" stroke="#1f2937" stroke-width="2"/>
    <line x1="330" y1="200" x2="330" y2="80" stroke="#1f2937" stroke-width="2"/>
    
    <!-- Flecha X -->
    <polygon points="570,200 565,195 565,205" fill="#1f2937"/>
    <text x="580" y="205" font-size="12" fill="#1f2937">t (s)</text>
    
    <!-- Flecha Y -->
    <polygon points="330,80 325,85 335,85" fill="#1f2937"/>
    <text x="315" y="75" font-size="12" fill="#1f2937">v (m/s)</text>
    
    <!-- Línea recta con pendiente (aceleración constante) -->
    <line x1="330" y1="200" x2="550" y2="100" stroke="#7c3aed" stroke-width="3"/>
    
    <!-- Área bajo la curva -->
    <path d="M 330 200 L 550 100 L 550 200 Z" fill="#7c3aed" opacity="0.2"/>
    
    <!-- Anotaciones -->
    <text x="450" y="230" font-size="11" text-anchor="middle" fill="#374151">Pendiente = aceleración (a)</text>
    <text x="450" y="245" font-size="10" text-anchor="middle" fill="#6b7280">Área bajo curva = desplazamiento</text>
  </g>
  
  <!-- GRÁFICO 3: Aceleración vs Tiempo -->
  <g id="grafico-a-t">
    <text x="750" y="70" font-size="16" font-weight="bold" text-anchor="middle" fill="#dc2626">Gráfico a-t (MRUV)</text>
    
    <!-- Ejes -->
    <line x1="630" y1="200" x2="870" y2="200" stroke="#1f2937" stroke-width="2"/>
    <line x1="630" y1="200" x2="630" y2="80" stroke="#1f2937" stroke-width="2"/>
    
    <!-- Flecha X -->
    <polygon points="870,200 865,195 865,205" fill="#1f2937"/>
    <text x="875" y="205" font-size="12" fill="#1f2937">t (s)</text>
    
    <!-- Flecha Y -->
    <polygon points="630,80 625,85 635,85" fill="#1f2937"/>
    <text x="610" y="75" font-size="12" fill="#1f2937">a (m/s²)</text>
    
    <!-- Línea horizontal (aceleración constante) -->
    <line x1="630" y1="130" x2="850" y2="130" stroke="#dc2626" stroke-width="3"/>
    
    <!-- Área bajo la curva -->
    <rect x="630" y="130" width="220" height="70" fill="#dc2626" opacity="0.2"/>
    
    <!-- Anotaciones -->
    <text x="750" y="230" font-size="11" text-anchor="middle" fill="#374151">a constante → línea horizontal</text>
    <text x="750" y="245" font-size="10" text-anchor="middle" fill="#6b7280">Área = cambio velocidad (Δv)</text>
  </g>
  
  <!-- EJEMPLOS COMPARATIVOS -->
  <rect x="50" y="280" width="800" height="280" fill="#f9fafb" stroke="#d1d5db" stroke-width="2" rx="10"/>
  
  <text x="450" y="310" font-size="18" font-weight="bold" text-anchor="middle" fill="#1f2937">Interpretación de Gráficos</text>
  
  <!-- Tabla comparativa -->
  <g font-size="12">
    <!-- Encabezados -->
    <rect x="70" y="330" width="760" height="30" fill="#3b82f6" rx="5"/>
    <text x="200" y="350" fill="white" font-weight="bold" text-anchor="middle">MRU (v = constante)</text>
    <text x="650" y="350" fill="white" font-weight="bold" text-anchor="middle">MRUV (a = constante)</text>
    
    <!-- Fila 1: x-t -->
    <rect x="70" y="360" width="130" height="40" fill="#e0f2fe" stroke="#3b82f6"/>
    <text x="135" y="385" text-anchor="middle" fill="#1f2937">Gráfico x-t</text>
    
    <rect x="200" y="360" width="280" height="40" fill="white" stroke="#3b82f6"/>
    <text x="340" y="380" text-anchor="middle" fill="#374151">Línea recta</text>
    <text x="340" y="395" text-anchor="middle" fill="#6b7280" font-size="10">Pendiente = v</text>
    
    <rect x="480" y="360" width="350" height="40" fill="white" stroke="#3b82f6"/>
    <text x="655" y="380" text-anchor="middle" fill="#374151">Parábola (curva)</text>
    <text x="655" y="395" text-anchor="middle" fill="#6b7280" font-size="10">x = x₀ + v₀t + ½at²</text>
    
    <!-- Fila 2: v-t -->
    <rect x="70" y="400" width="130" height="40" fill="#e0f2fe" stroke="#3b82f6"/>
    <text x="135" y="425" text-anchor="middle" fill="#1f2937">Gráfico v-t</text>
    
    <rect x="200" y="400" width="280" height="40" fill="white" stroke="#3b82f6"/>
    <text x="340" y="420" text-anchor="middle" fill="#374151">Línea horizontal</text>
    <text x="340" y="435" text-anchor="middle" fill="#6b7280" font-size="10">v = constante</text>
    
    <rect x="480" y="400" width="350" height="40" fill="white" stroke="#3b82f6"/>
    <text x="655" y="420" text-anchor="middle" fill="#374151">Línea recta inclinada</text>
    <text x="655" y="435" text-anchor="middle" fill="#6b7280" font-size="10">v = v₀ + at</text>
    
    <!-- Fila 3: a-t -->
    <rect x="70" y="440" width="130" height="40" fill="#e0f2fe" stroke="#3b82f6"/>
    <text x="135" y="465" text-anchor="middle" fill="#1f2937">Gráfico a-t</text>
    
    <rect x="200" y="440" width="280" height="40" fill="white" stroke="#3b82f6"/>
    <text x="340" y="460" text-anchor="middle" fill="#374151">a = 0</text>
    <text x="340" y="475" text-anchor="middle" fill="#6b7280" font-size="10">Sin aceleración</text>
    
    <rect x="480" y="440" width="350" height="40" fill="white" stroke="#3b82f6"/>
    <text x="655" y="460" text-anchor="middle" fill="#374151">Línea horizontal (a≠0)</text>
    <text x="655" y="475" text-anchor="middle" fill="#6b7280" font-size="10">a = constante</text>
  </g>
  
  <!-- Fórmulas clave -->
  <rect x="70" y="490" width="760" height="60" fill="#dbeafe" stroke="#3b82f6" stroke-width="2" rx="5"/>
  <text x="450" y="515" font-size="14" font-weight="bold" text-anchor="middle" fill="#1e40af">Ecuaciones Cinemática</text>
  <g font-size="12" fill="#1f2937">
    <text x="150" y="540" text-anchor="middle">MRU: x = x₀ + vt</text>
    <text x="450" y="540" text-anchor="middle">MRUV: v = v₀ + at</text>
    <text x="750" y="540" text-anchor="middle">v² = v₀² + 2a(x-x₀)</text>
  </g>
</svg>
