<svg xmlns="http://www.w3.org/2000/svg" viewBox="0 0 1100 700">
  <!-- Fondo -->
  <rect width="1100" height="700" fill="#faf5ff"/>
  
  <!-- Título -->
  <text x="550" y="40" font-size="28" font-weight="bold" text-anchor="middle" fill="#6b21a8">
    Perfil Energético de Reacciones Químicas
  </text>
  
  <!-- REACCIÓN EXOTÉRMICA (Izquierda) -->
  <g id="exotermica">
    <!-- Contenedor -->
    <rect x="50" y="80" width="490" height="580" fill="#fee2e2" stroke="#dc2626" stroke-width="3" rx="10"/>
    
    <text x="295" y="115" font-size="22" font-weight="bold" text-anchor="middle" fill="#991b1b">
      🔥 Reacción EXOTÉRMICA
    </text>
    <text x="295" y="140" font-size="14" text-anchor="middle" fill="#7f1d1d">
      ΔH &lt; 0 (Libera energía en forma de calor)
    </text>
    
    <!-- Ejes del gráfico -->
    <!-- Eje Y -->
    <line x1="100" y1="200" x2="100" y2="550" stroke="#000" stroke-width="2"/>
    <text x="80" y="375" font-size="14" font-weight="bold" fill="#000" text-anchor="middle" transform="rotate(-90 80 375)">
      Energía (E)
    </text>
    
    <!-- Eje X -->
    <line x1="100" y1="550" x2="490" y2="550" stroke="#000" stroke-width="2"/>
    <text x="295" y="580" font-size="14" font-weight="bold" text-anchor="middle" fill="#000">
      Avance de la Reacción →
    </text>
    
    <!-- Curva de energía exotérmica -->
    <path d="M 120 300 Q 200 250 260 220 Q 320 260 450 420" 
          stroke="#dc2626" stroke-width="4" fill="none"/>
    
    <!-- Reactivos (nivel alto) -->
    <line x1="120" y1="300" x2="180" y2="300" stroke="#1e40af" stroke-width="3" stroke-dasharray="5,5"/>
    <text x="150" y="290" font-size="13" font-weight="bold" text-anchor="middle" fill="#1e40af">
      Reactivos
    </text>
    <circle cx="120" cy="300" r="5" fill="#1e40af"/>
    
    <!-- Productos (nivel bajo) -->
    <line x1="390" y1="420" x2="450" y2="420" stroke="#059669" stroke-width="3" stroke-dasharray="5,5"/>
    <text x="420" y="410" font-size="13" font-weight="bold" text-anchor="middle" fill="#059669">
      Productos
    </text>
    <circle cx="450" cy="420" r="5" fill="#059669"/>
    
    <!-- Estado de transición (máximo) -->
    <circle cx="260" cy="220" r="6" fill="#dc2626"/>
    <text x="260" y="205" font-size="12" font-weight="bold" text-anchor="middle" fill="#991b1b">
      Estado de
    </text>
    <text x="260" y="195" font-size="12" font-weight="bold" text-anchor="middle" fill="#991b1b">
      Transición
    </text>
    
    <!-- Energía de activación (Ea) -->
    <line x1="150" y1="300" x2="150" y2="220" stroke="#f59e0b" stroke-width="2" stroke-dasharray="3,3"/>
    <path d="M 145 280 L 150 300 L 155 280" fill="#f59e0b"/>
    <path d="M 145 240 L 150 220 L 155 240" fill="#f59e0b"/>
    <text x="165" y="265" font-size="12" font-weight="bold" fill="#f59e0b">
      Ea
    </text>
    <text x="145" y="320" font-size="10" fill="#78350f" text-anchor="middle">
      Energía de
    </text>
    <text x="145" y="333" font-size="10" fill="#78350f" text-anchor="middle">
      activación
    </text>
    
    <!-- Delta H (cambio de entalpía) -->
    <line x1="420" y1="300" x2="420" y2="420" stroke="#dc2626" stroke-width="3"/>
    <path d="M 415 310 L 420 300 L 425 310" fill="#dc2626"/>
    <path d="M 415 410 L 420 420 L 425 410" fill="#dc2626"/>
    <text x="440" y="365" font-size="13" font-weight="bold" fill="#dc2626">
      ΔH &lt; 0
    </text>
    <text x="435" y="345" font-size="10" fill="#7f1d1d">
      (negativo)
    </text>
    <text x="435" y="385" font-size="10" fill="#7f1d1d">
      Energía
    </text>
    <text x="435" y="398" font-size="10" fill="#7f1d1d">
      liberada
    </text>
    
    <!-- Ejemplos -->
    <rect x="70" y="600" width="450" height="50" fill="#fef2f2" stroke="#dc2626" stroke-width="2" rx="5"/>
    <text x="295" y="623" font-size="13" font-weight="bold" text-anchor="middle" fill="#991b1b">
      Ejemplos:
    </text>
    <text x="295" y="642" font-size="11" text-anchor="middle" fill="#7f1d1d">
      Combustión (CH₄ + O₂), Neutralización (HCl + NaOH), Respiración celular
    </text>
  </g>
  
  <!-- REACCIÓN ENDOTÉRMICA (Derecha) -->
  <g id="endotermica">
    <!-- Contenedor -->
    <rect x="560" y="80" width="490" height="580" fill="#dbeafe" stroke="#2563eb" stroke-width="3" rx="10"/>
    
    <text x="805" y="115" font-size="22" font-weight="bold" text-anchor="middle" fill="#1e40af">
      ❄️ Reacción ENDOTÉRMICA
    </text>
    <text x="805" y="140" font-size="14" text-anchor="middle" fill="#1e3a8a">
      ΔH &gt; 0 (Absorbe energía del entorno)
    </text>
    
    <!-- Ejes del gráfico -->
    <!-- Eje Y -->
    <line x1="610" y1="200" x2="610" y2="550" stroke="#000" stroke-width="2"/>
    <text x="590" y="375" font-size="14" font-weight="bold" fill="#000" text-anchor="middle" transform="rotate(-90 590 375)">
      Energía (E)
    </text>
    
    <!-- Eje X -->
    <line x1="610" y1="550" x2="1000" y2="550" stroke="#000" stroke-width="2"/>
    <text x="805" y="580" font-size="14" font-weight="bold" text-anchor="middle" fill="#000">
      Avance de la Reacción →
    </text>
    
    <!-- Curva de energía endotérmica -->
    <path d="M 630 420 Q 710 360 770 330 Q 830 370 960 280" 
          stroke="#2563eb" stroke-width="4" fill="none"/>
    
    <!-- Reactivos (nivel bajo) -->
    <line x1="630" y1="420" x2="690" y2="420" stroke="#1e40af" stroke-width="3" stroke-dasharray="5,5"/>
    <text x="660" y="410" font-size="13" font-weight="bold" text-anchor="middle" fill="#1e40af">
      Reactivos
    </text>
    <circle cx="630" cy="420" r="5" fill="#1e40af"/>
    
    <!-- Productos (nivel alto) -->
    <line x1="900" y1="280" x2="960" y2="280" stroke="#059669" stroke-width="3" stroke-dasharray="5,5"/>
    <text x="930" y="270" font-size="13" font-weight="bold" text-anchor="middle" fill="#059669">
      Productos
    </text>
    <circle cx="960" cy="280" r="5" fill="#059669"/>
    
    <!-- Estado de transición (máximo) -->
    <circle cx="770" cy="330" r="6" fill="#2563eb"/>
    <text x="770" y="315" font-size="12" font-weight="bold" text-anchor="middle" fill="#1e40af">
      Estado de
    </text>
    <text x="770" y="305" font-size="12" font-weight="bold" text-anchor="middle" fill="#1e40af">
      Transición
    </text>
    
    <!-- Energía de activación (Ea) -->
    <line x1="660" y1="420" x2="660" y2="330" stroke="#f59e0b" stroke-width="2" stroke-dasharray="3,3"/>
    <path d="M 655 400 L 660 420 L 665 400" fill="#f59e0b"/>
    <path d="M 655 350 L 660 330 L 665 350" fill="#f59e0b"/>
    <text x="675" y="380" font-size="12" font-weight="bold" fill="#f59e0b">
      Ea
    </text>
    <text x="655" y="445" font-size="10" fill="#78350f" text-anchor="middle">
      Energía de
    </text>
    <text x="655" y="458" font-size="10" fill="#78350f" text-anchor="middle">
      activación
    </text>
    
    <!-- Delta H (cambio de entalpía) -->
    <line x1="930" y1="420" x2="930" y2="280" stroke="#2563eb" stroke-width="3"/>
    <path d="M 925 410 L 930 420 L 935 410" fill="#2563eb"/>
    <path d="M 925 290 L 930 280 L 935 290" fill="#2563eb"/>
    <text x="950" y="355" font-size="13" font-weight="bold" fill="#2563eb">
      ΔH &gt; 0
    </text>
    <text x="945" y="335" font-size="10" fill="#1e3a8a">
      (positivo)
    </text>
    <text x="945" y="375" font-size="10" fill="#1e3a8a">
      Energía
    </text>
    <text x="945" y="388" font-size="10" fill="#1e3a8a">
      absorbida
    </text>
    
    <!-- Ejemplos -->
    <rect x="580" y="600" width="450" height="50" fill="#eff6ff" stroke="#2563eb" stroke-width="2" rx="5"/>
    <text x="805" y="623" font-size="13" font-weight="bold" text-anchor="middle" fill="#1e40af">
      Ejemplos:
    </text>
    <text x="805" y="642" font-size="11" text-anchor="middle" fill="#1e3a8a">
      Fotosíntesis, Descomposición CaCO₃, Evaporación del agua, Fusión del hielo
    </text>
  </g>
  
  <!-- Nota sobre catalizador -->
  <rect x="250" y="10" width="600" height="50" fill="#fef3c7" stroke="#f59e0b" stroke-width="2" rx="8"/>
  <text x="550" y="30" font-size="13" font-weight="bold" text-anchor="middle" fill="#92400e">
    ⚗️ CATALIZADOR: Reduce Ea (energía de activación) sin cambiar ΔH
  </text>
  <text x="550" y="48" font-size="11" text-anchor="middle" fill="#78350f">
    Acelera la reacción al bajar la barrera energética, pero NO modifica el balance energético final
  </text>
</svg>