<svg xmlns="http://www.w3.org/2000/svg" viewBox="0 0 128 128">
  <!-- Sports Jersey with Shoulder Stripes, V-neck and a lightning chest emblem using EvenOdd transparency -->
  <path d="M 22 124 C 24 102, 40 86, 64 86 S 106 102, 106 124 H 22 Z M 50 86 L 64 102 L 78 86 Z M 26 124 C 28 114, 33 106, 39 100 L 41 102 C 35 108, 30 116, 28 124 Z M 32 124 C 34 116, 39 110, 45 104 L 47 106 C 41 112, 36 118, 34 124 Z M 102 124 C 100 114, 95 106, 89 100 L 87 102 C 93 108, 98 116, 100 124 Z M 96 124 C 94 116, 89 110, 83 104 L 81 106 C 87 112, 92 118, 94 124 Z M 63 102 H 68 L 61 111 H 66 L 59 122 L 62 113 H 57 Z" fill-rule="evenodd" fill="#000"/>
</svg>