<svg xmlns="http://www.w3.org/2000/svg" viewBox="0 0 128 128">
  <!-- Cozy Hoodie with Kangaroo Pocket, Drawstrings and Hood lines using EvenOdd transparency -->
  <path d="M 20 124 C 22 100, 38 84, 64 84 S 106 100, 108 124 H 20 Z M 46 84 C 50 94, 78 94, 82 84 Z M 53 90 L 53 108 H 55 L 55 90 Z M 73 90 L 73 108 H 75 L 75 90 Z M 46 124 L 54 112 H 74 L 82 124 H 80 L 73 114 H 55 L 48 124 Z M 38 98 C 40 106, 42 114, 42 124 H 40 C 40 114, 38 106, 36 98 Z M 90 98 C 88 106, 86 114, 86 124 H 88 C 88 114, 90 106, 92 98 Z" fill-rule="evenodd" fill="#000"/>
</svg>