<svg xmlns="http://www.w3.org/2000/svg" viewBox="0 0 128 128">
  <!-- Heroic Knight / Sci-Fi Armor with angular pauldrons, gorget collar and glowing chest core -->
  <path d="M 20 124 L 20 110 L 32 94 L 48 86 L 80 86 L 96 94 L 108 110 L 108 124 H 20 Z M 46 86 C 46 76, 82 76, 82 86 C 74 90, 54 90, 46 86 Z M 26 124 L 38 108 L 40 109 L 28 124 Z M 102 124 L 90 108 L 88 109 L 100 124 Z M 42 104 L 54 94 L 55 95 L 43 105 Z M 86 104 L 74 94 L 73 95 L 85 105 Z M 64 96 L 72 106 L 64 116 L 56 106 Z M 40 118 H 88 L 88 120 H 40 Z" fill-rule="evenodd" fill="#000"/>
</svg>