<svg xmlns="http://www.w3.org/2000/svg" viewBox="0 0 128 128">
  <!-- Elegant Blazer with Bow Tie, collar flaps, buttons and lapel lines using EvenOdd transparency -->
  <path d="M 22 124 C 24 102, 40 86, 64 86 S 106 102, 106 124 H 22 Z M 52 86 L 64 114 L 76 86 Z M 52 86 L 58 96 H 55 L 50 86 Z M 76 86 L 70 96 H 73 L 78 86 Z M 62 90 H 66 L 65 94 H 63 Z M 61 90 L 54 86 V 98 L 61 94 Z M 67 90 L 74 86 V 98 L 67 94 Z M 46 86 L 54 102 H 52 L 44 86 Z M 82 86 L 74 102 H 76 L 84 86 Z M 62.5 102 A 1.5 1.5 0 1 0 65.5 102 A 1.5 1.5 0 1 0 62.5 102 Z M 62.5 110 A 1.5 1.5 0 1 0 65.5 110 A 1.5 1.5 0 1 0 62.5 110 Z M 38 100 C 40 108, 42 116, 42 124 H 40 C 40 116, 38 108, 36 100 Z M 90 100 C 88 108, 86 116, 86 124 H 88 C 88 116, 90 108, 92 100 Z" fill-rule="evenodd" fill="#000"/>
</svg>