<svg xmlns="http://www.w3.org/2000/svg" viewBox="0 0 128 128">
  <!-- Premium Explorer / Adventurer Vest with Scarf, Pocket flaps, Zipper and straps using EvenOdd transparency -->
  <path d="M 22 124 C 24 102, 40 86, 64 86 S 106 102, 106 124 H 22 Z M 46 80 C 50 74, 78 74, 82 80 C 86 86, 80 86, 78 86 C 70 88, 58 88, 50 86 C 48 86, 42 86, 46 80 Z M 60 84 H 68 L 66 90 H 62 Z M 61 92 L 55 106 L 60 108 L 63 94 Z M 67 92 L 73 106 L 68 108 L 65 94 Z M 50 86 C 50 110, 78 110, 78 86 Z M 30 96 H 42 L 40 100 H 32 Z M 86 96 H 98 L 96 100 H 88 Z M 34 102 V 124 H 36 V 102 Z M 92 102 V 124 H 94 V 102 Z M 63 110 V 124 H 65 V 110 Z" fill-rule="evenodd" fill="#000"/>
</svg>