<svg xmlns="http://www.w3.org/2000/svg" viewBox="0 0 128 128">
  <!-- Premium School Uniform with V-neck, Tie and Lapel Details using EvenOdd transparency -->
  <path d="M 22 124 C 24 102, 40 86, 64 86 S 106 102, 106 124 H 22 Z M 52 86 L 64 110 L 76 86 Z M 61 88 H 67 L 66 94 H 62 Z M 62 96 H 66 L 68 114 L 64 118 L 60 114 Z M 48 86 L 56 102 H 54 L 46 86 Z M 80 86 L 72 102 H 74 L 82 86 Z M 38 100 C 40 108, 42 116, 42 124 H 40 C 40 116, 38 108, 36 100 Z M 90 100 C 88 108, 86 116, 86 124 H 88 C 88 116, 90 108, 92 100 Z" fill-rule="evenodd" fill="#000"/>
</svg>