<svg xmlns="http://www.w3.org/2000/svg" viewBox="0 0 128 128">
  <!-- Left Eye: Large premium chibi eye with double highlight cutouts -->
  <path d="M48 37c-5.2 0-9.5 5.8-9.5 13s4.3 13 9.5 13 9.5-5.8 9.5-13-4.3-13-9.5-13zm-3 5a3 3 0 1 1 0 6 3 3 0 0 1 0-6zm6.5 10.5a1.5 1.5 0 1 1 0 3 1.5 1.5 0 0 1 0-3z" fill-rule="evenodd" fill="#000"/>
  <!-- Right Eye: Large premium chibi eye with double highlight cutouts -->
  <path d="M80 37c-5.2 0-9.5 5.8-9.5 13s4.3 13 9.5 13 9.5-5.8 9.5-13-4.3-13-9.5-13zm-3 5a3 3 0 1 1 0 6 3 3 0 0 1 0-6zm6.5 10.5a1.5 1.5 0 1 1 0 3 1.5 1.5 0 0 1 0-3z" fill-rule="evenodd" fill="#000"/>
</svg>
