<svg xmlns="http://www.w3.org/2000/svg" viewBox="0 0 128 128">
  <!-- Smart Round Geek Glasses with transparent lenses to let the eyes shine through using EvenOdd -->
  <path d="M 48 48 M 48 38 A 10 10 0 1 0 48 58 A 10 10 0 1 0 48 38 Z M 48 40 A 8 8 0 1 1 48 56 A 8 8 0 1 1 48 40 Z M 80 48 M 80 38 A 10 10 0 1 0 80 58 A 10 10 0 1 0 80 38 Z M 80 40 A 8 8 0 1 1 80 56 A 8 8 0 1 1 80 40 Z M 58 46 C 62 44, 66 44, 70 46 V 49 C 66 47, 62 47, 58 49 Z M 38 46 H 34 V 49 H 38 Z M 90 46 H 94 V 49 H 90 Z" fill-rule="evenodd" fill="#000"/>
</svg>