<svg xmlns="http://www.w3.org/2000/svg" viewBox="0 0 800 500" width="800" height="500">
  <defs>
    <linearGradient id="inclusionBg" x1="0%" y1="0%" x2="100%" y2="100%">
      <stop offset="0%" style="stop-color:#fdf4ff;stop-opacity:1" />
      <stop offset="100%" style="stop-color:#fae8ff;stop-opacity:1" />
    </linearGradient>
  </defs>
  
  <!-- Fondo -->
  <rect width="800" height="500" fill="url(#inclusionBg)"/>
  
  <!-- Título -->
  <text x="400" y="50" font-family="Arial, sans-serif" font-size="42" font-weight="bold" fill="#a21caf" text-anchor="middle">
    🤝 EDUCACIÓN FÍSICA INCLUSIVA
  </text>
  <text x="400" y="85" font-family="Arial, sans-serif" font-size="20" fill="#64748b" text-anchor="middle">
    Adaptaciones para todos los estudiantes
  </text>
  
  <!-- Grupo diverso de niños -->
  <g transform="translate(150,180)">
    <!-- Niño 1: en silla de ruedas -->
    <g transform="translate(0,0)">
      <circle cx="0" cy="0" r="25" fill="#fbbf24"/>
      <circle cx="-7" cy="-3" r="2.5" fill="#1e293b"/>
      <circle cx="7" cy="-3" r="2.5" fill="#1e293b"/>
      <path d="M-10,7 Q0,12 10,7" fill="none" stroke="#1e293b" stroke-width="2"/>
      <!-- Cuerpo -->
      <ellipse cx="0" cy="45" rx="20" ry="28" fill="#3b82f6"/>
      <!-- Silla de ruedas -->
      <rect x="-25" y="35" width="50" height="40" rx="5" fill="#64748b"/>
      <circle cx="-20" cy="85" r="18" fill="#1e293b" stroke="#94a3b8" stroke-width="3"/>
      <circle cx="20" cy="85" r="18" fill="#1e293b" stroke="#94a3b8" stroke-width="3"/>
      <circle cx="-20" cy="85" r="5" fill="#cbd5e1"/>
      <circle cx="20" cy="85" r="5" fill="#cbd5e1"/>
      <!-- Pelota en manos -->
      <circle cx="0" cy="15" r="12" fill="#f97316"/>
    </g>
    
    <!-- Niño 2: con muletas -->
    <g transform="translate(120,0)">
      <circle cx="0" cy="0" r="23" fill="#fbbf24"/>
      <circle cx="-6" cy="-2" r="2" fill="#1e293b"/>
      <circle cx="6" cy="-2" r="2" fill="#1e293b"/>
      <path d="M-8,6 Q0,10 8,6" fill="none" stroke="#1e293b" stroke-width="2"/>
      <!-- Cuerpo -->
      <ellipse cx="0" cy="38" rx="18" ry="25" fill="#10b981"/>
      <!-- Piernas (una con yeso) -->
      <rect x="-12" y="60" width="10" height="40" rx="5" fill="#059669"/>
      <rect x="2" y="60" width="10" height="40" rx="5" fill="#cbd5e1"/> <!-- Yeso -->
      <rect x="0" y="75" width="14" height="8" fill="#cbd5e1"/> <!-- Vendaje -->
      <!-- Muletas -->
      <line x1="-25" y1="30" x2="-30" y2="95" stroke="#a855f7" stroke-width="4" stroke-linecap="round"/>
      <line x1="25" y1="30" x2="30" y2="95" stroke="#a855f7" stroke-width="4" stroke-linecap="round"/>
      <rect x="-28" y="25" width="6" height="12" rx="3" fill="#c084fc"/>
      <rect x="22" y="25" width="6" height="12" rx="3" fill="#c084fc"/>
    </g>
    
    <!-- Niña 3: con prótesis auditiva -->
    <g transform="translate(240,5)">
      <circle cx="0" cy="0" r="22" fill="#fbbf24"/>
      <!-- Cabello -->
      <path d="M-18,-5 Q-20,-15 -12,-19 Q0,-22 12,-19 Q20,-15 18,-5" fill="#6d28d9"/>
      <circle cx="-5" cy="-2" r="2" fill="#1e293b"/>
      <circle cx="5" cy="-2" r="2" fill="#1e293b"/>
      <path d="M-7,6 Q0,10 7,6" fill="none" stroke="#1e293b" stroke-width="2"/>
      <!-- Audífono -->
      <rect x="15" y="-8" width="5" height="10" rx="2" fill="#0ea5e9"/>
      <circle cx="17.5" cy="0" r="2" fill="#06b6d4"/>
      <!-- Cuerpo -->
      <ellipse cx="0" cy="38" rx="17" ry="24" fill="#ec4899"/>
      <!-- Piernas -->
      <rect x="-11" y="58" width="9" height="35" rx="4" fill="#db2777"/>
      <rect x="2" y="58" width="9" height="35" rx="4" fill="#db2777"/>
      <!-- Brazos levantados (celebrando) -->
      <rect x="-20" y="28" width="7" height="28" rx="3" fill="#be185d" transform="rotate(-110 -16.5 28)"/>
      <rect x="13" y="28" width="7" height="28" rx="3" fill="#be185d" transform="rotate(110 16.5 28)"/>
    </g>
    
    <!-- Niño 4: de diferente estatura (enanismo) -->
    <g transform="translate(360,35)">
      <circle cx="0" cy="0" r="18" fill="#fbbf24"/>
      <circle cx="-5" cy="-1" r="2" fill="#1e293b"/>
      <circle cx="5" cy="-1" r="2" fill="#1e293b"/>
      <path d="M-6,5 Q0,8 6,5" fill="none" stroke="#1e293b" stroke-width="2"/>
      <!-- Cuerpo proporcionado más pequeño -->
      <ellipse cx="0" cy="28" rx="14" ry="20" fill="#8b5cf6"/>
      <rect x="-9" y="45" width="8" height="28" rx="4" fill="#7c3aed"/>
      <rect x="1" y="45" width="8" height="28" rx="4" fill="#7c3aed"/>
      <rect x="-15" y="22" width="6" height="22" rx="3" fill="#6d28d9" transform="rotate(25 -12 22)"/>
      <rect x="9" y="22" width="6" height="22" rx="3" fill="#6d28d9" transform="rotate(-25 12 22)"/>
    </g>
    
    <!-- Niño 5: usando lentes -->
    <g transform="translate(470,0)">
      <circle cx="0" cy="0" r="24" fill="#fbbf24"/>
      <!-- Lentes -->
      <circle cx="-8" cy="-2" r="7" fill="none" stroke="#1e293b" stroke-width="2"/>
      <circle cx="8" cy="-2" r="7" fill="none" stroke="#1e293b" stroke-width="2"/>
      <line x1="-1" y1="-2" x2="1" y2="-2" stroke="#1e293b" stroke-width="2"/>
      <circle cx="-8" cy="-2" r="2" fill="#1e293b"/>
      <circle cx="8" cy="-2" r="2" fill="#1e293b"/>
      <path d="M-9,7 Q0,11 9,7" fill="none" stroke="#1e293b" stroke-width="2"/>
      <!-- Cuerpo -->
      <ellipse cx="0" cy="40" rx="19" ry="26" fill="#f97316"/>
      <rect x="-13" y="62" width="11" height="38" rx="5" fill="#ea580c"/>
      <rect x="2" y="62" width="11" height="38" rx="5" fill="#ea580c"/>
      <rect x="-22" y="32" width="8" height="30" rx="4" fill="#c2410c" transform="rotate(-20 -18 32)"/>
      <rect x="14" y="32" width="8" height="30" rx="4" fill="#c2410c" transform="rotate(20 18 32)"/>
    </g>
  </g>
  
  <!-- Panel de adaptaciones -->
  <rect x="50" y="330" width="700" height="140" fill="white" stroke="#a21caf" stroke-width="3" rx="12"/>
  <text x="400" y="360" font-family="Arial, sans-serif" font-size="22" font-weight="bold" fill="#a21caf" text-anchor="middle">
    ♿ ADAPTACIONES DISPONIBLES
  </text>
  
  <g transform="translate(70,380)">
    <text x="0" y="0" font-family="Arial, sans-serif" font-size="16" fill="#475569">
      ✓ Altura ajustable de aros y redes
    </text>
    <text x="0" y="25" font-family="Arial, sans-serif" font-size="16" fill="#475569">
      ✓ Pelotas de diferentes texturas y pesos
    </text>
    <text x="0" y="50" font-family="Arial, sans-serif" font-size="16" fill="#475569">
      ✓ Señalética visual y auditiva
    </text>
    
    <text x="370" y="0" font-family="Arial, sans-serif" font-size="16" fill="#475569">
      ✓ Espacios amplios para movilidad
    </text>
    <text x="370" y="25" font-family="Arial, sans-serif" font-size="16" fill="#475569">
      ✓ Soportes y ayudas técnicas
    </text>
    <text x="370" y="50" font-family="Arial, sans-serif" font-size="16" fill="#475569">
      ✓ Tiempos flexibles de ejecución
    </text>
  </g>
</svg>