<svg xmlns="http://www.w3.org/2000/svg" viewBox="0 0 1000 700" width="1000" height="700">
  <defs>
    <linearGradient id="safetyBg" x1="0%" y1="0%" x2="100%" y2="100%">
      <stop offset="0%" style="stop-color:#fef2f2;stop-opacity:1" />
      <stop offset="100%" style="stop-color:#fee2e2;stop-opacity:1" />
    </linearGradient>
    <linearGradient id="alertGrad" x1="0%" y1="0%" x2="100%" y2="0%">
      <stop offset="0%" style="stop-color:#dc2626;stop-opacity:1" />
      <stop offset="100%" style="stop-color:#991b1b;stop-opacity:1" />
    </linearGradient>
  </defs>
  
  <!-- Fondo -->
  <rect width="1000" height="700" fill="url(#safetyBg)"/>
  
  <!-- Borde -->
  <rect x="15" y="15" width="970" height="670" fill="none" stroke="#dc2626" stroke-width="6" rx="15"/>
  
  <!-- Header -->
  <rect x="40" y="40" width="920" height="90" fill="url(#alertGrad)" rx="12"/>
  <text x="500" y="75" font-family="Arial, sans-serif" font-size="30" font-weight="bold" fill="white" text-anchor="middle">
    ⚠️ REGLAS DE SEGURIDAD
  </text>
  <text x="500" y="110" font-family="Arial, sans-serif" font-size="28" font-weight="bold" fill="white" text-anchor="middle">
    EN EDUCACIÓN FÍSICA
  </text>
  
  <!-- Grid 3x2 -->
  
  <!-- 1. Calzado adecuado -->
  <g transform="translate(80,160)">
    <rect x="0" y="0" width="270" height="220" fill="white" stroke="#dc2626" stroke-width="2" rx="10"/>
    <!-- Zapatilla deportiva -->
    <g transform="translate(135,80)">
      <ellipse cx="0" cy="0" rx="60" ry="25" fill="#1e293b"/>
      <rect x="-60" y="-15" width="80" height="30" rx="8" fill="#3b82f6"/>
      <rect x="-50" y="-25" width="40" height="20" rx="5" fill="#60a5fa"/>
      <path d="M-30,-5 L-25,-5 L-25,5 L-35,5 Z" fill="white"/>
      <circle cx="30" cy="0" r="8" fill="#ef4444"/>
      <circle cx="5" cy="0" r="6" fill="#ef4444"/>
      <circle cx="-15" cy="0" r="6" fill="#ef4444"/>
    </g>
    <text x="135" y="150" font-family="Arial, sans-serif" font-size="18" font-weight="bold" fill="#1e293b" text-anchor="middle">
      CALZADO DEPORTIVO
    </text>
    <text x="135" y="175" font-family="Arial, sans-serif" font-size="14" fill="#64748b" text-anchor="middle">
      Amarrado correctamente
    </text>
    <text x="135" y="195" font-family="Arial, sans-serif" font-size="14" fill="#64748b" text-anchor="middle">
      Sin desgaste excesivo
    </text>
  </g>
  
  <!-- 2. Hidratación -->
  <g transform="translate(375,160)">
    <rect x="0" y="0" width="270" height="220" fill="white" stroke="#0ea5e9" stroke-width="2" rx="10"/>
    <!-- Botella de agua -->
    <g transform="translate(135,70)">
      <rect x="-15" y="0" width="30" height="10" rx="5" fill="#3b82f6"/>
      <rect x="-20" y="8" width="40" height="60" rx="8" fill="#0ea5e9" opacity="0.6"/>
      <rect x="-20" y="30" width="40" height="38" rx="8" fill="#38bdf8" opacity="0.8"/>
      <!-- Gotas -->
      <circle cx="45" cy="35" r="6" fill="#0ea5e9" opacity="0.7"/>
      <circle cx="55" cy="50" r="5" fill="#0ea5e9" opacity="0.7"/>
      <circle cx="50" cy="65" r="4" fill="#0ea5e9" opacity="0.7"/>
    </g>
    <text x="135" y="150" font-family="Arial, sans-serif" font-size="18" font-weight="bold" fill="#1e293b" text-anchor="middle">
      HIDRATACIÓN
    </text>
    <text x="135" y="175" font-family="Arial, sans-serif" font-size="14" fill="#64748b" text-anchor="middle">
      Agua disponible siempre
    </text>
    <text x="135" y="195" font-family="Arial, sans-serif" font-size="14" fill="#64748b" text-anchor="middle">
      Beber cada 15-20 minutos
    </text>
  </g>
  
  <!-- 3. Espacio seguro -->
  <g transform="translate(670,160)">
    <rect x="0" y="0" width="270" height="220" fill="white" stroke="#10b981" stroke-width="2" rx="10"/>
    <!-- Área delimitada -->
    <g transform="translate(135,80)">
      <rect x="-50" y="-30" width="100" height="60" fill="none" stroke="#10b981" stroke-width="4" stroke-dasharray="10,5" rx="8"/>
      <circle cx="-45" cy="-25" r="6" fill="#f59e0b"/>
      <circle cx="45" cy="-25" r="6" fill="#f59e0b"/>
      <circle cx="-45" cy="25" r="6" fill="#f59e0b"/>
      <circle cx="45" cy="25" r="6" fill="#f59e0b"/>
      <!-- Figura en centro -->
      <circle cx="0" cy="-5" r="12" fill="#fbbf24"/>
      <ellipse cx="0" cy="15" rx="10" ry="15" fill="#3b82f6"/>
    </g>
    <text x="135" y="150" font-family="Arial, sans-serif" font-size="18" font-weight="bold" fill="#1e293b" text-anchor="middle">
      ESPACIO DELIMITADO
    </text>
    <text x="135" y="175" font-family="Arial, sans-serif" font-size="14" fill="#64748b" text-anchor="middle">
      Sin obstáculos peligrosos
    </text>
    <text x="135" y="195" font-family="Arial, sans-serif" font-size="14" fill="#64748b" text-anchor="middle">
      Superficie adecuada
    </text>
  </g>
  
  <!-- 4. Calentamiento obligatorio -->
  <g transform="translate(80,405)">
    <rect x="0" y="0" width="270" height="220" fill="white" stroke="#f97316" stroke-width="2" rx="10"/>
    <!-- Figura estirando -->
    <g transform="translate(135,80)">
      <circle cx="0" cy="-15" r="18" fill="#fbbf24"/>
      <ellipse cx="0" cy="15" rx="16" ry="25" fill="#f97316"/>
      <!-- Brazos arriba -->
      <rect x="-18" y="5" width="8" height="30" rx="4" fill="#ea580c" transform="rotate(-120 -14 5)"/>
      <rect x="10" y="5" width="8" height="30" rx="4" fill="#ea580c" transform="rotate(120 14 5)"/>
      <!-- Piernas -->
      <rect x="-12" y="38" width="10" height="35" rx="5" fill="#c2410c"/>
      <rect x="2" y="38" width="10" height="35" rx="5" fill="#c2410c"/>
    </g>
    <text x="135" y="150" font-family="Arial, sans-serif" font-size="18" font-weight="bold" fill="#1e293b" text-anchor="middle">
      CALENTAMIENTO
    </text>
    <text x="135" y="175" font-family="Arial, sans-serif" font-size="14" fill="#64748b" text-anchor="middle">
      Mínimo 5 minutos
    </text>
    <text x="135" y="195" font-family="Arial, sans-serif" font-size="14" fill="#64748b" text-anchor="middle">
      Previene lesiones
    </text>
  </g>
  
  <!-- 5. Revisión de materiales -->
  <g transform="translate(375,405)">
    <rect x="0" y="0" width="270" height="220" fill="white" stroke="#8b5cf6" stroke-width="2" rx="10"/>
    <!-- Checklist con lupa -->
    <g transform="translate(135,70)">
      <rect x="-30" y="-20" width="60" height="70" fill="white" stroke="#1e293b" stroke-width="2" rx="5"/>
      <!-- Checks -->
      <path d="M-20,-5 L-15,0 L-10,-8" fill="none" stroke="#10b981" stroke-width="3"/>
      <path d="M-20,10 L-15,15 L-10,7" fill="none" stroke="#10b981" stroke-width="3"/>
      <path d="M-20,25 L-15,30 L-10,22" fill="none" stroke="#10b981" stroke-width="3"/>
      <!-- Lupa -->
      <circle cx="35" cy="35" r="15" fill="none" stroke="#8b5cf6" stroke-width="3"/>
      <line x1="47" y1="47" x2="58" y2="58" stroke="#8b5cf6" stroke-width="4" stroke-linecap="round"/>
    </g>
    <text x="135" y="150" font-family="Arial, sans-serif" font-size="18" font-weight="bold" fill="#1e293b" text-anchor="middle">
      INSPECCIÓN EQUIPOS
    </text>
    <text x="135" y="175" font-family="Arial, sans-serif" font-size="14" fill="#64748b" text-anchor="middle">
      Revisar antes de usar
    </text>
    <text x="135" y="195" font-family="Arial, sans-serif" font-size="14" fill="#64748b" text-anchor="middle">
      Reportar daños
    </text>
  </g>
  
  <!-- 6. Primeros auxilios -->
  <g transform="translate(670,405)">
    <rect x="0" y="0" width="270" height="220" fill="white" stroke="#dc2626" stroke-width="2" rx="10"/>
    <!-- Botiquín -->
    <g transform="translate(135,75)">
      <rect x="-35" y="-25" width="70" height="50" rx="5" fill="#dc2626"/>
      <rect x="-35" y="-30" width="70" height="10" rx="3" fill="#991b1b"/>
      <rect x="-5" y="-15" width="10" height="30" fill="white"/>
      <rect x="-20" y="-5" width="40" height="10" fill="white"/>
    </g>
    <text x="135" y="150" font-family="Arial, sans-serif" font-size="18" font-weight="bold" fill="#1e293b" text-anchor="middle">
      BOTIQUÍN ACCESIBLE
    </text>
    <text x="135" y="175" font-family="Arial, sans-serif" font-size="14" fill="#64748b" text-anchor="middle">
      Ubicación conocida
    </text>
    <text x="135" y="195" font-family="Arial, sans-serif" font-size="14" fill="#64748b" text-anchor="middle">
      Protocolo de emergencia
    </text>
  </g>
  
  <!-- Footer -->
  <text x="500" y="675" font-family="Arial, sans-serif" font-size="16" font-weight="bold" fill="#dc2626" text-anchor="middle">
    LA SEGURIDAD ES RESPONSABILIDAD DE TODOS 🛡️
  </text>
</svg>