<svg xmlns="http://www.w3.org/2000/svg" viewBox="0 0 1200 800" width="1200" height="800">
  <defs>
    <linearGradient id="posterBg" x1="0%" y1="0%" x2="100%" y2="100%">
      <stop offset="0%" style="stop-color:#fef3c7;stop-opacity:1" />
      <stop offset="100%" style="stop-color:#fcd34d;stop-opacity:1" />
    </linearGradient>
    <linearGradient id="headerGrad" x1="0%" y1="0%" x2="100%" y2="0%">
      <stop offset="0%" style="stop-color:#f97316;stop-opacity:1" />
      <stop offset="100%" style="stop-color:#ea580c;stop-opacity:1" />
    </linearGradient>
  </defs>
  
  <!-- Fondo -->
  <rect width="1200" height="800" fill="url(#posterBg)"/>
  
  <!-- Borde decorativo -->
  <rect x="20" y="20" width="1160" height="760" fill="none" stroke="#f97316" stroke-width="8" rx="20"/>
  <rect x="30" y="30" width="1140" height="740" fill="none" stroke="#fb923c" stroke-width="4" rx="15"/>
  
  <!-- Header -->
  <rect x="60" y="60" width="1080" height="100" fill="url(#headerGrad)" rx="15"/>
  <text x="600" y="105" font-family="Arial, sans-serif" font-size="38" font-weight="bold" fill="white" text-anchor="middle">
    RUTINA DE CALENTAMIENTO
  </text>
  <text x="600" y="140" font-family="Arial, sans-serif" font-size="32" font-weight="bold" fill="white" text-anchor="middle">
    5 MINUTOS
  </text>
  
  <!-- Fase 1: Movilidad articular -->
  <g transform="translate(100,220)">
    <rect x="0" y="0" width="450" height="240" fill="white" stroke="#f97316" stroke-width="3" rx="12"/>
    <rect x="0" y="0" width="450" height="50" fill="#f97316" rx="12"/>
    <text x="225" y="35" font-family="Arial, sans-serif" font-size="28" font-weight="bold" fill="white" text-anchor="middle">
      1. MOVILIDAD (90 seg)
    </text>
    
    <!-- Ilustración: círculos articulares -->
    <g transform="translate(80,100)">
      <circle cx="0" cy="0" r="30" fill="#fbbf24"/>
      <circle cx="-20" cy="30" r="15" fill="#f59e0b"/>
      <circle cx="20" cy="30" r="15" fill="#f59e0b"/>
      <path d="M-15,25 Q0,20 15,25" stroke="#1e293b" stroke-width="2" fill="none"/>
      <ellipse cx="0" cy="50" rx="25" ry="35" fill="#3b82f6"/>
      <!-- Brazos en círculo -->
      <path d="M-25,50 Q-50,30 -60,50 Q-50,70 -25,60" fill="#2563eb"/>
      <path d="M25,50 Q50,30 60,50 Q50,70 25,60" fill="#2563eb"/>
      <!-- Flechas circulares -->
      <path d="M-70,45 A25,25 0 1,1 -70,55" fill="none" stroke="#ef4444" stroke-width="3" marker-end="url(#arrowhead)"/>
      <path d="M70,45 A25,25 0 1,0 70,55" fill="none" stroke="#ef4444" stroke-width="3"/>
    </g>
    
    <text x="225" y="90" font-family="Arial, sans-serif" font-size="20" fill="#1e293b" text-anchor="middle" font-weight="600">
      Rotaciones articulares
    </text>
    <text x="30" y="180" font-family="Arial, sans-serif" font-size="16" fill="#475569">
      • Cuello: 8 rotaciones (4 c/lado)
    </text>
    <text x="30" y="205" font-family="Arial, sans-serif" font-size="16" fill="#475569">
      • Hombros: 10 rotaciones
    </text>
    <text x="30" y="230" font-family="Arial, sans-serif" font-size="16" fill="#475569">
      • Caderas: 8 círculos
    </text>
  </g>
  
  <!-- Fase 2: Activación cardiovascular -->
  <g transform="translate(650,220)">
    <rect x="0" y="0" width="450" height="240" fill="white" stroke="#10b981" stroke-width="3" rx="12"/>
    <rect x="0" y="0" width="450" height="50" fill="#10b981" rx="12"/>
    <text x="225" y="35" font-family="Arial, sans-serif" font-size="28" font-weight="bold" fill="white" text-anchor="middle">
      2. ACTIVACIÓN (120 seg)
    </text>
    
    <!-- Ilustración: trote -->
    <g transform="translate(80,110)">
      <circle cx="0" cy="0" r="28" fill="#fbbf24"/>
      <ellipse cx="0" cy="45" rx="22" ry="32" fill="#10b981"/>
      <!-- Piernas trotando -->
      <rect x="-16" y="72" width="12" height="38" rx="6" fill="#059669" transform="rotate(-40 -10 72)"/>
      <rect x="4" y="72" width="12" height="38" rx="6" fill="#10b981" transform="rotate(50 10 72)"/>
      <!-- Brazos -->
      <rect x="-22" y="35" width="9" height="32" rx="4" fill="#047857" transform="rotate(45 -17.5 35)"/>
      <rect x="13" y="35" width="9" height="32" rx="4" fill="#059669" transform="rotate(-35 17.5 35)"/>
      <!-- Líneas de movimiento -->
      <path d="M-35,95 L-45,90" stroke="#10b981" stroke-width="2" opacity="0.5"/>
      <path d="M-30,105 L-40,100" stroke="#10b981" stroke-width="2" opacity="0.5"/>
    </g>
    
    <text x="225" y="90" font-family="Arial, sans-serif" font-size="20" fill="#1e293b" text-anchor="middle" font-weight="600">
      Trote y desplazamientos
    </text>
    <text x="30" y="180" font-family="Arial, sans-serif" font-size="16" fill="#475569">
      • Trote suave: 30 segundos
    </text>
    <text x="30" y="205" font-family="Arial, sans-serif" font-size="16" fill="#475569">
      • Skipping bajo: 30 segundos
    </text>
    <text x="30" y="230" font-family="Arial, sans-serif" font-size="16" fill="#475569">
      • Desplazamiento lateral: 30 seg
    </text>
  </g>
  
  <!-- Fase 3: Estiramientos dinámicos -->
  <g transform="translate(100,510)">
    <rect x="0" y="0" width="450" height="240" fill="white" stroke="#8b5cf6" stroke-width="3" rx="12"/>
    <rect x="0" y="0" width="450" height="50" fill="#8b5cf6" rx="12"/>
    <text x="225" y="35" font-family="Arial, sans-serif" font-size="28" font-weight="bold" fill="white" text-anchor="middle">
      3. ESTIRAMIENTOS (90 seg)
    </text>
    
    <!-- Ilustración: estiramiento -->
    <g transform="translate(80,110)">
      <circle cx="0" cy="0" r="26" fill="#fbbf24"/>
      <ellipse cx="0" cy="42" rx="20" ry="30" fill="#8b5cf6"/>
      <!-- Pierna extendida -->
      <rect x="-14" y="68" width="11" height="48" rx="5" fill="#7c3aed"/>
      <rect x="3" y="68" width="11" height="45" rx="5" fill="#8b5cf6" transform="rotate(-80 8.5 68)"/>
      <!-- Brazos tocando punta -->
      <rect x="-20" y="32" width="8" height="35" rx="4" fill="#6d28d9" transform="rotate(45 -16 32)"/>
      <rect x="12" y="32" width="8" height="35" rx="4" fill="#7c3aed" transform="rotate(45 16 32)"/>
    </g>
    
    <text x="225" y="90" font-family="Arial, sans-serif" font-size="20" fill="#1e293b" text-anchor="middle" font-weight="600">
      Movilidad dinámica
    </text>
    <text x="30" y="180" font-family="Arial, sans-serif" font-size="16" fill="#475569">
      • Péndulo piernas: 10 rep c/lado
    </text>
    <text x="30" y="205" font-family="Arial, sans-serif" font-size="16" fill="#475569">
      • Zancadas caminando: 8 rep
    </text>
    <text x="30" y="230" font-family="Arial, sans-serif" font-size="16" fill="#475569">
      • Giro de tronco: 8 rep c/lado
    </text>
  </g>
  
  <!-- Cronómetro visual -->
  <g transform="translate(650,510)">
    <rect x="0" y="0" width="450" height="240" fill="white" stroke="#ef4444" stroke-width="3" rx="12"/>
    <rect x="0" y="0" width="450" height="50" fill="#ef4444" rx="12"/>
    <text x="225" y="35" font-family="Arial, sans-serif" font-size="28" font-weight="bold" fill="white" text-anchor="middle">
      ⏱️ TIEMPO TOTAL
    </text>
    
    <!-- Cronómetro grande -->
    <circle cx="225" cy="140" r="60" fill="#fef3c7" stroke="#ef4444" stroke-width="6"/>
    <text x="225" y="160" font-family="Arial, sans-serif" font-size="56" font-weight="bold" fill="#ef4444" text-anchor="middle">
      5'
    </text>
    
    <text x="225" y="220" font-family="Arial, sans-serif" font-size="18" fill="#475569" text-anchor="middle">
      Cronometrar cada fase
    </text>
  </g>
  
  <!-- Footer con consejos -->
  <rect x="60" y="760" width="1080" height="1" fill="#f97316"/>
  <text x="600" y="790" font-family="Arial, sans-serif" font-size="16" fill="#78350f" text-anchor="middle" font-style="italic">
    💡 Adaptable según edad y condición física | Hidratarse antes de comenzar
  </text>
</svg>